####
#
# OBJ File Generated by Meshlab
#
####
# Object car_logo_leg_hold.obj
#
# Vertices: 70
# Faces: 136
#
####
vn -0.0000001 -2.9452429 -3.1264648
v 100.0000000 0.0000000 0.0000000
vn 0.6099434 2.9452434 -3.0663905
v 119.5090332 300.0000000 1.9214749
vn 0.6099433 -2.9452434 -3.0663905
v 119.5090332 0.0000000 1.9214749
vn 1.1964464 2.9452431 -2.8884766
v 138.2683411 300.0000000 7.6120496
vn 1.1964462 -2.9452429 -2.8884768
v 138.2683411 0.0000000 7.6120496
vn 1.7369704 2.9452434 -2.5995605
v 155.5570221 300.0000000 16.8530426
vn 1.7369704 -2.9452434 -2.5995603
v 155.5570221 0.0000000 16.8530426
vn 2.2107444 2.9452424 -2.2107441
v 170.7106781 300.0000000 29.2893200
vn 2.2107441 -2.9452424 -2.2107441
v 170.7106781 0.0000000 29.2893200
vn 2.5995603 2.9452436 -1.7369707
v 183.1469574 300.0000000 44.4429779
vn 2.5995605 -2.9452436 -1.7369707
v 183.1469574 0.0000000 44.4429779
vn 2.8884768 2.9452426 -1.1964459
v 192.3879547 300.0000000 61.7316589
vn 2.8884766 -2.9452426 -1.1964459
v 192.3879547 0.0000000 61.7316589
vn 3.0663905 2.9452438 -0.6099429
v 198.0785217 300.0000000 80.4909668
vn 3.0663905 -2.9452438 -0.6099430
v 198.0785217 0.0000000 80.4909668
vn 3.1264646 2.9452424 0.0000000
v 200.0000000 300.0000000 100.0000000
vn 3.1264646 -2.9452424 -0.0000000
v 200.0000000 0.0000000 100.0000000
vn 3.0663905 2.9452436 0.6099430
v 198.0785217 300.0000000 119.5090332
vn 3.0663905 -2.9452438 0.6099429
v 198.0785217 0.0000000 119.5090332
vn 2.8884766 2.9452426 1.1964461
v 192.3879547 300.0000000 138.2683411
vn 2.8884768 -2.9452426 1.1964459
v 192.3879547 0.0000000 138.2683411
vn 2.5995605 2.9452436 1.7369708
v 183.1469574 300.0000000 155.5570221
vn 2.5995603 -2.9452436 1.7369707
v 183.1469574 0.0000000 155.5570221
vn 2.2107441 2.9452426 2.2107444
v 170.7106781 300.0000000 170.7106781
vn 2.2107444 -2.9452426 2.2107444
v 170.7106781 0.0000000 170.7106781
vn 1.7369707 2.9452436 2.5995603
v 155.5570221 300.0000000 183.1469574
vn 1.7369709 -2.9452436 2.5995605
v 155.5570221 0.0000000 183.1469574
vn 1.1964459 2.9452426 2.8884768
v 138.2683411 300.0000000 192.3879547
vn 1.1964459 -2.9452426 2.8884766
v 138.2683411 0.0000000 192.3879547
vn 0.6099429 2.9452438 3.0663905
v 119.5090332 300.0000000 198.0785217
vn 0.6099430 -2.9452438 3.0663905
v 119.5090332 0.0000000 198.0785217
vn -0.0000000 2.9452424 3.1264646
v 100.0000000 300.0000000 200.0000000
vn 0.0000000 -2.9452424 3.1264646
v 100.0000000 0.0000000 200.0000000
vn -0.6099430 2.9452438 3.0663905
v 80.4909668 300.0000000 198.0785217
vn -0.6099429 -2.9452438 3.0663905
v 80.4909668 0.0000000 198.0785217
vn -1.1964461 2.9452426 2.8884766
v 61.7316589 300.0000000 192.3879547
vn -1.1964459 -2.9452426 2.8884768
v 61.7316589 0.0000000 192.3879547
vn -1.7369707 2.9452436 2.5995605
v 44.4429779 300.0000000 183.1469574
vn -1.7369707 -2.9452436 2.5995603
v 44.4429779 0.0000000 183.1469574
vn -2.2107444 2.9452424 2.2107441
v 29.2893200 300.0000000 170.7106781
vn -2.2107441 -2.9452424 2.2107441
v 29.2893200 0.0000000 170.7106781
vn -2.5995603 2.9452434 1.7369704
v 16.8530426 300.0000000 155.5570221
vn -2.5995605 -2.9452434 1.7369704
v 16.8530426 0.0000000 155.5570221
vn -2.8884768 2.9452431 1.1964462
v 7.6120496 300.0000000 138.2683411
vn -2.8884766 -2.9452429 1.1964464
v 7.6120496 0.0000000 138.2683411
vn -3.0663905 2.9452434 0.6099433
v 1.9214749 300.0000000 119.5090332
vn -3.0663905 -2.9452434 0.6099434
v 1.9214749 0.0000000 119.5090332
vn -3.1264648 2.9452429 -0.0000001
v 0.0000000 300.0000000 100.0000000
vn -3.1264648 -2.9452429 0.0000001
v 0.0000000 0.0000000 100.0000000
vn -3.0663905 2.9452434 -0.6099433
v 1.9214749 300.0000000 80.4909668
vn -3.0663905 -2.9452434 -0.6099433
v 1.9214749 0.0000000 80.4909668
vn -2.8884766 2.9452431 -1.1964464
v 7.6120496 300.0000000 61.7316589
vn -2.8884768 -2.9452429 -1.1964462
v 7.6120496 0.0000000 61.7316589
vn -2.5995607 2.9452434 -1.7369704
v 16.8530426 300.0000000 44.4429779
vn -2.5995605 -2.9452434 -1.7369704
v 16.8530426 0.0000000 44.4429779
vn -2.2107444 2.9452424 -2.2107444
v 29.2893200 300.0000000 29.2893200
vn -2.2107444 -2.9452424 -2.2107444
v 29.2893200 0.0000000 29.2893200
vn -1.7369704 2.9452434 -2.5995605
v 44.4429779 300.0000000 16.8530426
vn -1.7369704 -2.9452434 -2.5995607
v 44.4429779 0.0000000 16.8530426
vn -1.1964462 2.9452431 -2.8884768
v 61.7316589 300.0000000 7.6120496
vn -1.1964464 -2.9452429 -2.8884766
v 61.7316589 0.0000000 7.6120496
vn -0.6099433 2.9452434 -3.0663905
v 80.4909668 300.0000000 1.9214749
vn -0.6099434 -2.9452434 -3.0663905
v 80.4909668 0.0000000 1.9214749
vn 0.0000001 2.9452429 -3.1264648
v 100.0000000 300.0000000 0.0000000
vn 1.3043936 5.3387046 1.3043936
v 50.0000000 300.0000000 50.0000000
vn -1.3043936 5.3387032 -1.3043936
v 150.0000000 300.0000000 150.0000000
vn 1.3043936 5.3387041 -1.3043936
v 50.0000000 300.0000000 150.0000000
vn -1.3043936 5.3387041 1.3043936
v 150.0000000 300.0000000 50.0000000
vn 0.0000000 -6.2831764 0.0000000
v 100.0000000 0.0000000 100.0000000
vn 0.0000000 0.4283034 0.0000000
v 100.0000000 91.7350159 100.0000000
# 70 vertices, 0 vertices normals

f 1//1 2//2 3//3
f 3//3 2//2 4//4
f 3//3 4//4 5//5
f 5//5 4//4 6//6
f 5//5 6//6 7//7
f 7//7 6//6 8//8
f 7//7 8//8 9//9
f 9//9 8//8 10//10
f 9//9 10//10 11//11
f 11//11 10//10 12//12
f 11//11 12//12 13//13
f 13//13 12//12 14//14
f 13//13 14//14 15//15
f 15//15 14//14 16//16
f 15//15 16//16 17//17
f 17//17 16//16 18//18
f 17//17 18//18 19//19
f 19//19 18//18 20//20
f 19//19 20//20 21//21
f 21//21 20//20 22//22
f 21//21 22//22 23//23
f 23//23 22//22 24//24
f 23//23 24//24 25//25
f 25//25 24//24 26//26
f 25//25 26//26 27//27
f 27//27 26//26 28//28
f 27//27 28//28 29//29
f 29//29 28//28 30//30
f 29//29 30//30 31//31
f 31//31 30//30 32//32
f 31//31 32//32 33//33
f 33//33 32//32 34//34
f 33//33 34//34 35//35
f 35//35 34//34 36//36
f 35//35 36//36 37//37
f 37//37 36//36 38//38
f 37//37 38//38 39//39
f 39//39 38//38 40//40
f 39//39 40//40 41//41
f 41//41 40//40 42//42
f 41//41 42//42 43//43
f 43//43 42//42 44//44
f 43//43 44//44 45//45
f 45//45 44//44 46//46
f 45//45 46//46 47//47
f 47//47 46//46 48//48
f 47//47 48//48 49//49
f 49//49 48//48 50//50
f 49//49 50//50 51//51
f 51//51 50//50 52//52
f 51//51 52//52 53//53
f 53//53 52//52 54//54
f 53//53 54//54 55//55
f 55//55 54//54 56//56
f 55//55 56//56 57//57
f 57//57 56//56 58//58
f 57//57 58//58 59//59
f 59//59 58//58 60//60
f 59//59 60//60 61//61
f 61//61 60//60 62//62
f 61//61 62//62 63//63
f 63//63 62//62 64//64
f 63//63 64//64 1//1
f 1//1 64//64 2//2
f 54//54 52//52 65//65
f 28//28 26//26 66//66
f 66//66 26//26 24//24
f 66//66 24//24 22//22
f 67//67 38//38 36//36
f 36//36 34//34 67//67
f 67//67 34//34 32//32
f 67//67 32//32 66//66
f 66//66 32//32 30//30
f 66//66 30//30 28//28
f 44//44 42//42 67//67
f 67//67 42//42 40//40
f 67//67 40//40 38//38
f 52//52 50//50 65//65
f 65//65 50//50 48//48
f 65//65 48//48 67//67
f 67//67 48//48 46//46
f 67//67 46//46 44//44
f 8//8 6//6 68//68
f 68//68 6//6 4//4
f 60//60 58//58 65//65
f 65//65 58//58 56//56
f 65//65 56//56 54//54
f 4//4 2//2 68//68
f 68//68 2//2 64//64
f 68//68 64//64 65//65
f 65//65 64//64 62//62
f 65//65 62//62 60//60
f 22//22 20//20 66//66
f 66//66 20//20 18//18
f 66//66 18//18 68//68
f 68//68 18//18 16//16
f 68//68 16//16 14//14
f 14//14 12//12 68//68
f 68//68 12//12 10//10
f 68//68 10//10 8//8
f 33//33 35//35 69//69
f 33//33 69//69 31//31
f 25//25 27//27 69//69
f 69//69 27//27 29//29
f 69//69 29//29 31//31
f 19//19 21//21 69//69
f 69//69 21//21 23//23
f 69//69 23//23 25//25
f 13//13 15//15 69//69
f 69//69 15//15 17//17
f 69//69 17//17 19//19
f 7//7 9//9 69//69
f 69//69 9//9 11//11
f 69//69 11//11 13//13
f 1//1 3//3 69//69
f 69//69 3//3 5//5
f 69//69 5//5 7//7
f 59//59 61//61 69//69
f 69//69 61//61 63//63
f 69//69 63//63 1//1
f 53//53 55//55 69//69
f 69//69 55//55 57//57
f 69//69 57//57 59//59
f 47//47 49//49 69//69
f 69//69 49//49 51//51
f 69//69 51//51 53//53
f 41//41 43//43 69//69
f 69//69 43//43 45//45
f 69//69 45//45 47//47
f 35//35 37//37 69//69
f 69//69 37//37 39//39
f 69//69 39//39 41//41
f 68//68 70//70 66//66
f 66//66 70//70 67//67
f 67//67 70//70 65//65
f 65//65 70//70 68//68
# 136 faces, 0 coords texture

# End of File
