####
#
# OBJ File Generated by Meshlab
#
####
# Object chair.obj
#
# Vertices: 72
# Faces: 116
#
####
mtllib ./chair.obj.mtl

vn -1.5707964 -1.5707963 -1.5707961
v -15.8268003 -15.8268003 -0.6995000
vn -1.5707963 1.5707964 -1.5707964
v -15.8268003 15.8268003 -0.6995000
vn 1.5707964 1.5707963 -1.5707961
v 15.8268003 15.8268003 -0.6995000
vn 1.5707963 -1.5707964 -1.5707964
v 15.8268003 -15.8268003 -0.6995000
vn 1.6590976 1.6590980 1.8920115
v -12.9223003 -12.9223003 3.1847000
vn -1.6590980 1.6590976 1.8920115
v 12.9223003 -12.9223003 3.1847000
vn -1.6590976 -1.6590980 1.8920115
v 12.9223003 12.9223003 3.1847000
vn 1.6590980 -1.6590976 1.8920115
v -12.9223003 12.9223003 3.1847000
vn 1.6680765 -1.6680765 1.5664138
v 15.8268003 -15.8268003 5.6487002
vn -1.6680765 -1.6680765 1.5664138
v -15.8268003 -15.8268003 5.6487002
vn 1.6680765 1.6680765 1.5664138
v 15.8268003 15.8268003 5.6487002
vn -1.6680765 1.6680765 1.5664138
v -15.8268003 15.8268003 5.6487002
vn -1.1779233 1.1779238 4.9530506
v 13.1925001 -13.1925001 5.9759002
vn 1.1779238 1.1779233 4.9530506
v -13.1925001 -13.1925001 5.9759002
vn -1.1779238 -1.1779233 4.9530506
v 13.1925001 13.1925001 5.9759002
vn 1.1779233 -1.1779238 4.9530506
v -13.1925001 13.1925001 5.9759002
vn -1.5707963 -1.5707965 -1.5707964
v -12.9294004 -14.3926001 -19.1534004
vn 1.5707964 -1.5707964 -1.5707964
v 13.5713997 -14.3926001 -19.1534004
vn 1.5707963 -1.5707965 1.5707964
v 13.5713997 -14.3926001 -9.0391998
vn -1.5707964 -1.5707964 1.5707964
v -12.9294004 -14.3926001 -9.0391998
vn -1.5707964 -1.5707961 1.5707961
v 14.5261002 14.5261002 0.6284000
vn 1.5707961 -1.5707964 1.5707964
v -14.5261002 14.5261002 0.6284000
vn 1.5707964 1.5707961 1.5707961
v -14.5261002 -14.5261002 0.6284000
vn -1.5707961 1.5707964 1.5707964
v 14.5261002 -14.5261002 0.6284000
vn 1.3822640 1.3822643 -1.0945381
v 14.2229996 14.2229996 1.8568000
vn 1.3822643 -1.3822640 -1.0945381
v 14.2229996 -14.2229996 1.8568000
vn -1.3822640 -1.3822643 -1.0945381
v -14.2229996 -14.2229996 1.8568000
vn -1.3822643 1.3822640 -1.0945381
v -14.2229996 14.2229996 1.8568000
vn -1.0948923 1.0948920 -1.4639590
v 14.5261002 -14.5261002 4.3207998
vn 1.0948920 1.0948923 -1.4639590
v -14.5261002 -14.5261002 4.3207998
vn -1.0948920 -1.0948923 -1.4639590
v 14.5261002 14.5261002 4.3207998
vn 1.0948923 -1.0948920 -1.4639590
v -14.5261002 14.5261002 4.3207998
vn 2.9502463 -2.9502463 -3.2132897
v 13.8718004 -13.8718004 3.8954000
vn -2.9502463 -2.9502463 -3.2132897
v -13.8718004 -13.8718004 3.8954000
vn 2.9502463 2.9502463 -3.2132897
v 13.8718004 13.8718004 3.8954000
vn -2.9502463 2.9502463 -3.2132897
v -13.8718004 13.8718004 3.8954000
vn 1.5707964 1.5707965 1.5707964
v 13.5713997 -12.1396999 -9.0391998
vn 1.5707963 1.5707964 -1.5707964
v 13.5713997 -12.1396999 -19.1534004
vn -1.5707964 1.5707965 -1.5707964
v -12.9294004 -12.1396999 -19.1534004
vn -1.5707963 1.5707964 1.5707964
v -12.9294004 -12.1396999 -9.0391998
vn 1.5738018 1.4600443 1.4145941
v 18.5900993 -12.2455997 23.4293003
vn 1.5485802 1.6812922 -1.7213721
v 13.8710003 -11.7033005 -19.0485992
vn -1.5463579 1.4477009 -1.3611685
v 11.9295998 -11.7033005 -19.0485992
vn -1.5715042 1.6936346 1.7866722
v 17.1802998 -12.2455997 23.4293003
vn 1.5738037 -1.4600445 1.4145973
v 18.5900993 -14.3343000 23.4293003
vn 1.5485791 -1.6812930 -1.7213678
v 13.8710003 -14.8767004 -19.0485992
vn -1.5715078 -1.6936324 1.7866766
v 17.1802998 -14.3343000 23.4293003
vn -1.5463537 -1.4477019 -1.3611656
v 11.9295998 -14.8767004 -19.0485992
vn -1.5503886 1.6878694 -1.7367784
v -13.3161001 -11.6679001 -19.0485992
vn -1.5696666 1.4535731 1.4002554
v -18.3512001 -12.0860004 23.7311001
vn 1.5661463 1.7054939 1.7998440
v -16.9277000 -12.0860004 23.7311001
vn 1.5469545 1.4359499 -1.3469855
v -11.1265001 -11.6679001 -19.0485992
vn -1.5503901 -1.6878695 -1.7367826
v -13.3161001 -14.9119997 -19.0485992
vn -1.5696651 -1.4535747 1.4002521
v -18.3512001 -14.4940004 23.7311001
vn 1.5469556 -1.4359498 -1.3469887
v -11.1265001 -14.9119997 -19.0485992
vn 1.5661436 -1.7054927 1.7998397
v -16.9277000 -14.4940004 23.7311001
vn 1.5894895 1.4219246 1.3859560
v 18.0655003 14.2750998 23.7311001
vn 1.5177524 1.7175566 -1.7340961
v 14.5270996 15.1456003 0.0000000
vn -1.5055943 1.3745116 -1.2222409
v 12.0529003 15.1456003 0.0000000
vn -1.5761596 1.7649708 1.9476478
v 16.7521000 14.2750998 23.7311001
vn 1.5894893 -1.4219245 1.3859560
v 18.0655003 12.3049002 23.7311001
vn 1.5177528 -1.7175565 -1.7340961
v 14.5270996 11.4343996 0.0000000
vn -1.5761594 -1.7649710 1.9476477
v 16.7521000 12.3049002 23.7311001
vn -1.5055950 -1.3745103 -1.2222409
v 12.0529003 11.4343996 0.0000000
vn 1.5759362 1.7610909 1.9382105
v -16.6541996 14.3108997 23.7311001
vn 1.5082303 1.3785641 -1.2299504
v -12.0534000 15.1448002 0.0000000
vn -1.5211083 1.7090726 -1.7241919
v -14.5264997 15.1448002 0.0000000
vn -1.5900024 1.4305823 1.3979471
v -17.8565998 14.3108997 23.7311001
vn 1.5759320 -1.7610909 1.9382021
v -16.6541996 12.2690001 23.7311001
vn 1.5082338 -1.3785648 -1.2299554
v -12.0534000 11.4351997 0.0000000
vn -1.5899984 -1.4305825 1.3979416
v -17.8565998 12.2690001 23.7311001
vn -1.5211121 -1.7090728 -1.7241997
v -14.5264997 11.4351997 0.0000000
# 72 vertices, 0 vertices normals


usemtl material_0
vt 1.0000000 0.0000000
vt 1.0000000 1.0000000
vt 0.0000000 1.0000000
f 1/1/1 2/2/2 3/3/3
vt 0.0000000 0.0000000
f 3/3/3 4/4/4 1/1/1
f 5/4/5 6/1/6 7/2/7
f 7/2/7 8/3/8 5/4/5
f 1/4/1 4/1/4 9/2/9
f 9/2/9 10/3/10 1/4/1
f 4/4/4 3/1/3 11/2/11
f 11/2/11 9/3/9 4/4/4
f 3/4/3 2/1/2 12/2/12
f 12/2/12 11/3/11 3/4/3
f 2/4/2 1/1/1 10/2/10
f 10/2/10 12/3/12 2/4/2
f 10/4/10 9/1/9 13/1/13
f 13/1/13 14/4/14 10/4/10
f 9/1/9 11/2/11 15/2/15
f 15/2/15 13/1/13 9/1/9
f 11/2/11 12/3/12 16/3/16
f 16/3/16 15/2/15 11/2/11
f 12/3/12 10/4/10 14/4/14
f 14/4/14 16/3/16 12/3/12
f 14/4/14 13/1/13 6/1/6
f 6/1/6 5/4/5 14/4/14
f 13/1/13 15/2/15 7/2/7
f 7/2/7 6/1/6 13/1/13
f 15/2/15 16/3/16 8/3/8
f 8/3/8 7/2/7 15/2/15
f 16/3/16 14/4/14 5/4/5
f 5/4/5 8/3/8 16/3/16
f 17/4/17 18/1/18 19/2/19
f 19/2/19 20/3/20 17/4/17
f 21/3/21 22/2/22 23/1/23
f 23/1/23 24/4/24 21/3/21
f 25/2/25 26/1/26 27/4/27
f 27/4/27 28/3/28 25/2/25
f 29/2/29 24/1/24 23/4/23
f 23/4/23 30/3/30 29/2/29
f 31/2/31 21/1/21 24/4/24
f 24/4/24 29/3/29 31/2/31
f 32/2/32 22/1/22 21/4/21
f 21/4/21 31/3/31 32/2/32
f 30/2/30 23/1/23 22/4/22
f 22/4/22 32/3/32 30/2/30
f 33/1/33 29/1/29 30/4/30
f 30/4/30 34/4/34 33/1/33
f 35/2/35 31/2/31 29/1/29
f 29/1/29 33/1/33 35/2/35
f 36/3/36 32/3/32 31/2/31
f 31/2/31 35/2/35 36/3/36
f 34/4/34 30/4/30 32/3/32
f 32/3/32 36/3/36 34/4/34
f 26/1/26 33/1/33 34/4/34
f 34/4/34 27/4/27 26/1/26
f 25/2/25 35/2/35 33/1/33
f 33/1/33 26/1/26 25/2/25
f 28/3/28 36/3/36 35/2/35
f 35/2/35 25/2/25 28/3/28
f 27/4/27 34/4/34 36/3/36
f 36/3/36 28/3/28 27/4/27
f 37/2/37 38/1/38 39/4/39
f 39/4/39 40/3/40 37/2/37
f 18/1/18 17/4/17 39/4/39
f 39/4/39 38/1/38 18/1/18
f 19/2/19 18/1/18 38/1/38
f 38/1/38 37/2/37 19/2/19
f 20/3/20 19/2/19 37/2/37
f 37/2/37 40/3/40 20/3/20
f 17/4/17 20/3/20 40/3/40
f 40/3/40 39/4/39 17/4/17

usemtl material_1
f 41/1/41 42/1/42 43/1/43
f 43/1/43 44/1/44 41/1/41
f 45/1/45 46/1/46 42/1/42
f 42/1/42 41/1/41 45/1/45
f 47/1/47 48/1/48 46/1/46
f 46/1/46 45/1/45 47/1/47
f 44/1/44 43/1/43 48/1/48
f 48/1/48 47/1/47 44/1/44
f 46/1/46 48/1/48 43/1/43
f 43/1/43 42/1/42 46/1/46
f 44/1/44 47/1/47 45/1/45
f 45/1/45 41/1/41 44/1/44
f 49/1/49 50/1/50 51/1/51
f 51/1/51 52/1/52 49/1/49
f 53/1/53 54/1/54 50/1/50
f 50/1/50 49/1/49 53/1/53
f 55/1/55 56/1/56 54/1/54
f 54/1/54 53/1/53 55/1/55
f 52/1/52 51/1/51 56/1/56
f 56/1/56 55/1/55 52/1/52
f 54/1/54 56/1/56 51/1/51
f 51/1/51 50/1/50 54/1/54
f 52/1/52 55/1/55 53/1/53
f 53/1/53 49/1/49 52/1/52
f 57/1/57 58/1/58 59/1/59
f 59/1/59 60/1/60 57/1/57
f 61/1/61 62/1/62 58/1/58
f 58/1/58 57/1/57 61/1/61
f 63/1/63 64/1/64 62/1/62
f 62/1/62 61/1/61 63/1/63
f 60/1/60 59/1/59 64/1/64
f 64/1/64 63/1/63 60/1/60
f 62/1/62 64/1/64 59/1/59
f 59/1/59 58/1/58 62/1/62
f 60/1/60 63/1/63 61/1/61
f 61/1/61 57/1/57 60/1/60
f 65/1/65 66/1/66 67/1/67
f 67/1/67 68/1/68 65/1/65
f 69/1/69 70/1/70 66/1/66
f 66/1/66 65/1/65 69/1/69
f 71/1/71 72/1/72 70/1/70
f 70/1/70 69/1/69 71/1/71
f 68/1/68 67/1/67 72/1/72
f 72/1/72 71/1/71 68/1/68
f 70/1/70 72/1/72 67/1/67
f 67/1/67 66/1/66 70/1/70
f 68/1/68 71/1/71 69/1/69
f 69/1/69 65/1/65 68/1/68
# 116 faces, 4 coords texture

# End of File
