####
#
# OBJ File Generated by Meshlab
#
####
# Object chair_back.obj
#
# Vertices: 120
# Faces: 204
#
####
mtllib ./chair_back.obj.mtl

vn 1.5707964 1.5707964 1.5707964
v -1.0692000 0.3596000 3.7026999
vn 1.5707964 1.5707964 -1.5707964
v -1.0692000 0.3596000 3.2368000
vn -1.5707964 1.5707964 -1.5707964
v -1.5351000 0.3596000 3.2368000
vn -1.5707964 1.5707964 1.5707964
v -1.5351000 0.3596000 3.7026999
vn -1.6595190 -1.8938130 -1.6595192
v -1.1120000 0.3024000 3.6599000
vn 1.6595192 -1.8938130 -1.6595193
v -1.4924001 0.3024000 3.6599000
vn 1.6571332 -1.8895857 1.6599256
v -1.4924001 0.3024000 3.2795000
vn -1.6571332 -1.8895857 1.6599255
v -1.1120000 0.3024000 3.2795000
vn -1.6697894 -1.5662555 1.6698591
v -1.5351000 0.2662000 3.7026999
vn 1.6696974 -1.5662668 1.6696974
v -1.0692000 0.2662000 3.7026999
vn -1.6697894 -1.5662555 -1.6698592
v -1.5351000 0.2662000 3.2368000
vn 1.6696974 -1.5662670 -1.6696974
v -1.0692000 0.2662000 3.2368000
vn 1.1716707 -4.9528923 -1.1727417
v -1.4964000 0.2613000 3.6638999
vn -1.1725798 -4.9530082 -1.1725799
v -1.1080000 0.2613000 3.6638999
vn 1.1740564 -4.9495883 1.1730593
v -1.4964000 0.2613000 3.2756000
vn -1.1749656 -4.9497037 1.1728972
v -1.1080000 0.2613000 3.2756000
vn 1.5707963 1.5707964 1.5707961
v -1.1119000 0.6312000 3.6816001
vn -1.5707964 1.5707960 1.5707964
v -1.5019000 0.6312000 3.6816001
vn -1.5707963 -1.5707964 1.5707961
v -1.5019000 0.4824000 3.6816001
vn 1.5707964 -1.5707960 1.5707964
v -1.1119000 0.4824000 3.6816001
vn 1.5707964 -1.5707963 1.5707961
v -1.5160000 0.3401000 3.2558999
vn -1.5707966 -1.5707964 1.5707964
v -1.0884000 0.3401000 3.2558999
vn -1.5707964 -1.5707963 -1.5707961
v -1.0884000 0.3401000 3.6835999
vn 1.5707966 -1.5707964 -1.5707964
v -1.5160000 0.3401000 3.6835999
vn -1.3810517 1.0920353 -1.3810484
v -1.5115000 0.3220000 3.2604001
vn -1.3810438 1.0920258 1.3810471
v -1.5115000 0.3220000 3.6791000
vn 1.3810443 1.0920259 1.3810468
v -1.0928000 0.3220000 3.6791000
vn 1.3810514 1.0920352 -1.3810488
v -1.0928000 0.3220000 3.2604001
vn 1.0953256 1.4641571 -1.0953251
v -1.5160000 0.2857000 3.6835999
vn -1.0938220 1.4631771 -1.0925475
v -1.0884000 0.2857000 3.6835999
vn 1.0953256 1.4641570 1.0953256
v -1.5160000 0.2857000 3.2558999
vn -1.0938213 1.4631764 1.0925481
v -1.0884000 0.2857000 3.2558999
vn -2.9500904 3.2108591 2.9500864
v -1.5063000 0.2920000 3.6738999
vn 2.9610682 3.2036915 2.9473090
v -1.0980000 0.2920000 3.6738999
vn -2.9500828 3.2108717 -2.9500880
v -1.5063000 0.2920000 3.2656000
vn 2.9610600 3.2037046 -2.9473107
v -1.0980000 0.2920000 3.2656000
vn -1.5707964 -1.5707960 -1.5707961
v -1.5019000 0.4824000 3.6484001
vn -1.5707963 1.5707964 -1.5707964
v -1.5019000 0.6312000 3.6484001
vn 1.5707964 1.5707960 -1.5707961
v -1.1119000 0.6312000 3.6484001
vn 1.5707963 -1.5707964 -1.5707964
v -1.1119000 0.4824000 3.6484001
vn -1.5707965 1.5707963 1.5707964
v -2.3464999 0.3596000 2.8977001
vn 1.5707964 1.5707964 1.5707963
v -1.8805000 0.3596000 2.8977001
vn 1.5707965 1.5707963 -1.5707964
v -1.8805000 0.3596000 2.4317999
vn -1.5707964 1.5707964 -1.5707963
v -2.3464999 0.3596000 2.4317999
vn 1.6595249 -1.8938231 -1.6595182
v -2.3037000 0.3024000 2.8548999
vn 1.6595193 -1.8938130 1.6595192
v -2.3037000 0.3024000 2.4744999
vn -1.6595185 -1.8938181 1.6595222
v -1.9233000 0.3024000 2.4744999
vn -1.6595243 -1.8938280 -1.6595210
v -1.9233000 0.3024000 2.8548999
vn -1.6698591 -1.5662553 -1.6697893
v -2.3464999 0.2662000 2.4317999
vn -1.6696974 -1.5662668 1.6696973
v -2.3464999 0.2662000 2.8977001
vn 1.6698589 -1.5662555 -1.6697892
v -1.8805000 0.2662000 2.4317999
vn 1.6696975 -1.5662668 1.6696974
v -1.8805000 0.2662000 2.8977001
vn 1.1727414 -4.9528923 1.1716717
v -2.3076999 0.2613000 2.4705000
vn 1.1725742 -4.9530153 -1.1725791
v -2.3076999 0.2613000 2.8589001
vn -1.1727409 -4.9528971 1.1716689
v -1.9193000 0.2613000 2.4705000
vn -1.1725736 -4.9530191 -1.1725762
v -1.9193000 0.2613000 2.8589001
vn -1.5707963 1.5707964 1.5707963
v -2.3254001 0.6312000 2.8550000
vn -1.5707964 1.5707961 -1.5707964
v -2.3254001 0.6312000 2.4649999
vn -1.5707963 -1.5707964 -1.5707963
v -2.3254001 0.4824000 2.4649999
vn -1.5707964 -1.5707961 1.5707964
v -2.3254001 0.4824000 2.8550000
vn -1.5707961 -1.5707963 1.5707964
v -1.8997000 0.3401000 2.4509001
vn -1.5707964 -1.5707964 -1.5707961
v -1.8997000 0.3401000 2.8785000
vn 1.5707961 -1.5707963 -1.5707964
v -2.3273001 0.3401000 2.8785000
vn 1.5707964 -1.5707964 1.5707961
v -2.3273001 0.3401000 2.4509001
vn 1.3848746 1.0999377 -1.3848751
v -1.9042000 0.3220000 2.4554000
vn -1.3841937 1.0959696 -1.3817209
v -2.3229001 0.3220000 2.4554000
vn -1.3810507 1.0920303 1.3810450
v -2.3229001 0.3220000 2.8741000
vn 1.3817278 1.0959791 1.3841952
v -1.9042000 0.3220000 2.8741000
vn 1.0910192 1.4621813 1.0910207
v -2.3273001 0.2857000 2.4509001
vn 1.0910192 1.4621789 -1.0910223
v -2.3273001 0.2857000 2.8785000
vn -1.0910152 1.4621772 1.0910156
v -1.8997000 0.2857000 2.4509001
vn -1.0910156 1.4621789 -1.0910140
v -1.8997000 0.2857000 2.8785000
vn -2.9550991 3.2026236 -2.9593277
v -2.3176999 0.2920000 2.4605000
vn -2.9582419 3.1965504 2.9582863
v -2.3176999 0.2920000 2.8689001
vn 2.9561663 3.2086802 -2.9561689
v -1.9093000 0.2920000 2.4605000
vn 2.9593139 3.2026215 2.9551277
v -1.9093000 0.2920000 2.8689001
vn 1.5707963 -1.5707961 -1.5707964
v -2.2922001 0.4824000 2.4649999
vn 1.5707964 1.5707964 -1.5707963
v -2.2922001 0.6312000 2.4649999
vn 1.5707963 1.5707961 1.5707964
v -2.2922001 0.6312000 2.8550000
vn 1.5707964 -1.5707964 1.5707963
v -2.2922001 0.4824000 2.8550000
vn 1.5707964 1.5707963 1.5707965
v -0.1897000 0.3596000 2.8977001
vn 1.5707965 1.5707964 -1.5707964
v -0.1897000 0.3596000 2.4317999
vn -1.5707964 1.5707963 -1.5707965
v -0.6557000 0.3596000 2.4317999
vn -1.5707965 1.5707964 1.5707964
v -0.6557000 0.3596000 2.8977001
vn -1.6595246 -1.8938254 -1.6595196
v -0.2325000 0.3024000 2.8548999
vn 1.6595247 -1.8938257 -1.6595197
v -0.6129000 0.3024000 2.8548999
vn 1.6595190 -1.8938154 1.6595206
v -0.6129000 0.3024000 2.4744999
vn -1.6595190 -1.8938155 1.6595207
v -0.2325000 0.3024000 2.4744999
vn -1.6696974 -1.5662668 1.6696975
v -0.6557000 0.2662000 2.8977001
vn 1.6696975 -1.5662669 1.6696974
v -0.1897000 0.2662000 2.8977001
vn -1.6698591 -1.5662553 -1.6697893
v -0.6557000 0.2662000 2.4317999
vn 1.6698589 -1.5662556 -1.6697894
v -0.1897000 0.2662000 2.4317999
vn 1.1725740 -4.9530172 -1.1725775
v -0.6169000 0.2613000 2.8589001
vn -1.1725736 -4.9530172 -1.1725776
v -0.2285000 0.2613000 2.8589001
vn 1.1727411 -4.9528937 1.1716703
v -0.6169000 0.2613000 2.4705000
vn -1.1727412 -4.9528937 1.1716703
v -0.2285000 0.2613000 2.4705000
vn 1.5707963 1.5707964 1.5707963
v -0.2324000 0.6312000 2.8766000
vn -1.5707964 1.5707959 1.5707964
v -0.6225000 0.6312000 2.8766000
vn -1.5707963 -1.5707964 1.5707963
v -0.6225000 0.4824000 2.8766000
vn 1.5707964 -1.5707959 1.5707964
v -0.2324000 0.4824000 2.8766000
vn 1.5707964 -1.5707963 1.5707966
v -0.6365000 0.3401000 2.4509001
vn -1.5707961 -1.5707964 1.5707964
v -0.2089000 0.3401000 2.4509001
vn -1.5707964 -1.5707963 -1.5707966
v -0.2089000 0.3401000 2.8785000
vn 1.5707961 -1.5707964 -1.5707964
v -0.6365000 0.3401000 2.8785000
vn -1.3848735 1.0999380 -1.3848746
v -0.6320000 0.3220000 2.4554000
vn -1.3817284 1.0959790 1.3841953
v -0.6320000 0.3220000 2.8741000
vn 1.3810518 1.0920362 1.3810494
v -0.2133000 0.3220000 2.8741000
vn 1.3841945 1.0959755 -1.3817257
v -0.2133000 0.3220000 2.4554000
vn 1.0910163 1.4621775 -1.0910177
v -0.6365000 0.2857000 2.8785000
vn -1.0910168 1.4621797 -1.0910162
v -0.2089000 0.2857000 2.8785000
vn 1.0910164 1.4621778 1.0910169
v -0.6365000 0.2857000 2.4509001
vn -1.0910165 1.4621778 1.0910181
v -0.2089000 0.2857000 2.4509001
vn -2.9593055 3.2026277 2.9551306
v -0.6269000 0.2920000 2.8689001
vn 2.9582615 3.1965451 2.9582753
v -0.2185000 0.2920000 2.8689001
vn -2.9561610 3.2086825 -2.9561687
v -0.6269000 0.2920000 2.4605000
vn 2.9551184 3.2026217 -2.9593191
v -0.2185000 0.2920000 2.4605000
vn -1.5707964 -1.5707959 -1.5707963
v -0.6225000 0.4824000 2.8434000
vn -1.5707963 1.5707964 -1.5707964
v -0.6225000 0.6312000 2.8434000
vn 1.5707964 1.5707959 -1.5707963
v -0.2324000 0.6312000 2.8434000
vn 1.5707963 -1.5707964 -1.5707964
v -0.2324000 0.4824000 2.8434000
# 120 vertices, 0 vertices normals


usemtl material_0
vt 2.5520000 -1.5520000
vt 2.5520000 2.5520000
vt -1.5520000 2.5520000
f 1/1/1 2/2/2 3/3/3
vt -1.5520000 -1.5520000
f 3/3/3 4/4/4 1/1/1
vt -1.1755000 -1.1755000
vt 2.1754999 -1.1755000
vt 2.1754999 2.1754999
f 5/5/5 6/6/6 7/7/7
vt -1.1755000 2.1754999
f 7/7/7 8/8/8 5/5/5
vt -1.5520000 0.4112000
vt 2.5520000 0.4112000
vt 2.5520000 1.2174000
f 1/9/1 4/10/4 9/11/9
vt -1.5520000 1.2174000
f 9/11/9 10/12/10 1/9/1
f 4/9/4 3/10/3 11/11/11
f 11/11/11 9/12/9 4/9/4
f 3/9/3 2/10/2 12/11/12
f 12/11/12 11/12/11 3/9/3
f 2/9/2 1/10/1 10/11/10
f 10/11/10 12/12/12 2/9/2
vt 2.2105000 -1.2105000
f 10/4/10 9/1/9 13/13/13
vt -1.2105000 -1.2105000
f 13/13/13 14/14/14 10/4/10
vt 2.2105000 2.2105000
f 9/1/9 11/2/11 15/15/15
f 15/15/15 13/13/13 9/1/9
vt -1.2105000 2.2105000
f 11/2/11 12/3/12 16/16/16
f 16/16/16 15/15/15 11/2/11
f 12/3/12 10/4/10 14/14/14
f 14/14/14 16/16/16 12/3/12
vt 2.2105000 1.2589000
vt -1.2105000 1.2589000
vt -1.1755000 0.9045000
f 14/17/14 13/18/13 6/19/6
vt 2.1754999 0.9045000
f 6/19/6 5/20/5 14/17/14
f 13/17/13 15/18/15 7/19/7
f 7/19/7 6/20/6 13/17/13
f 15/17/15 16/18/16 8/19/8
f 8/19/8 7/20/7 15/17/15
f 16/17/16 14/18/14 5/19/5
f 5/19/5 8/20/8 16/17/16
vt -1.1763999 -1.9325000
vt 2.2595999 -1.9325000
vt 2.2595999 -0.6480000
f 17/21/17 18/22/18 19/23/19
vt -1.1763999 -0.6480000
f 19/23/19 20/24/20 17/21/17
vt 2.3834000 2.3834000
vt -1.3834000 2.3834000
vt -1.3834000 -1.3834000
f 21/25/21 22/26/22 23/27/23
vt 2.3834000 -1.3834000
f 23/27/23 24/28/24 21/25/21
vt -1.3441000 2.3441000
vt -1.3441000 -1.3441000
vt 2.3441000 -1.3441000
f 25/29/25 26/30/26 27/31/27
vt 2.3441000 2.3441000
f 27/31/27 28/32/28 25/29/25
vt -1.3834000 1.0487000
vt -1.3834000 0.5798000
vt 2.3834000 0.5798000
f 29/33/29 24/34/24 23/35/23
vt 2.3834000 1.0487000
f 23/35/23 30/36/30 29/33/29
f 31/33/31 21/34/21 24/35/24
f 24/35/24 29/36/29 31/33/31
f 32/33/32 22/34/22 21/35/21
f 21/35/21 31/36/31 32/33/32
f 30/33/30 23/34/23 22/35/22
f 22/35/22 32/36/32 30/33/30
vt -1.2986000 -1.2986000
f 33/37/33 29/27/29 30/28/30
vt 2.2986000 -1.2986000
f 30/28/30 34/38/34 33/37/33
vt -1.2986000 2.2986000
f 35/39/35 31/26/31 29/27/29
f 29/27/29 33/37/33 35/39/35
vt 2.2986000 2.2986000
f 36/40/36 32/25/32 31/26/31
f 31/26/31 35/39/35 36/40/36
f 34/38/34 30/28/30 32/25/32
f 32/25/32 36/40/36 34/38/34
vt 2.3441000 0.7358000
vt 2.2986000 0.9947000
vt -1.2986000 0.9947000
f 26/41/26 33/42/33 34/43/34
vt -1.3441000 0.7358000
f 34/43/34 27/44/27 26/41/26
f 25/41/25 35/42/35 33/43/33
f 33/43/33 26/44/26 25/41/25
f 28/41/28 36/42/36 35/43/35
f 35/43/35 25/44/25 28/41/28
f 27/41/27 34/42/34 36/43/36
f 36/43/36 28/44/28 27/41/27
vt -1.2596000 -0.6480000
vt -1.2596000 -1.9325000
vt 2.1763999 -1.9325000
f 37/45/37 38/46/38 39/47/39
vt 2.1763999 -0.6480000
f 39/47/39 40/48/40 37/45/37
vt -1.2596000 -1.3661000
vt 2.1763999 -1.3661000
vt 2.1763999 -1.0740000
f 18/49/18 17/50/17 39/51/39
vt -1.2596000 -1.0740000
f 39/51/39 38/52/38 18/49/18
vt -1.3661000 -0.6480000
vt -1.3661000 -1.9325000
vt -1.0740000 -1.9325000
f 19/53/19 18/54/18 38/55/38
vt -1.0740000 -0.6480000
f 38/55/38 37/56/37 19/53/19
vt -1.1763999 -1.3661000
vt 2.2595999 -1.3661000
vt 2.2595999 -1.0740000
f 20/57/20 19/58/19 37/59/37
vt -1.1763999 -1.0740000
f 37/59/37 40/60/40 20/57/20
vt 2.3661001 -1.9325000
vt 2.3661001 -0.6480000
vt 2.0739999 -0.6480000
f 17/61/17 20/62/20 40/63/40
vt 2.0739999 -1.9325000
f 40/63/40 39/64/39 17/61/17
f 41/1/41 42/2/42 43/3/43
f 43/3/43 44/4/44 41/1/41
f 45/5/45 46/6/46 47/7/47
f 47/7/47 48/8/48 45/5/45
f 41/9/41 44/10/44 49/11/49
f 49/11/49 50/12/50 41/9/41
f 44/9/44 43/10/43 51/11/51
f 51/11/51 49/12/49 44/9/44
f 43/9/43 42/10/42 52/11/52
f 52/11/52 51/12/51 43/9/43
f 42/9/42 41/10/41 50/11/50
f 50/11/50 52/12/52 42/9/42
f 50/4/50 49/1/49 53/13/53
f 53/13/53 54/14/54 50/4/50
f 49/1/49 51/2/51 55/15/55
f 55/15/55 53/13/53 49/1/49
f 51/2/51 52/3/52 56/16/56
f 56/16/56 55/15/55 51/2/51
f 52/3/52 50/4/50 54/14/54
f 54/14/54 56/16/56 52/3/52
f 54/17/54 53/18/53 46/19/46
f 46/19/46 45/20/45 54/17/54
f 53/17/53 55/18/55 47/19/47
f 47/19/47 46/20/46 53/17/53
f 55/17/55 56/18/56 48/19/48
f 48/19/48 47/20/47 55/17/55
f 56/17/56 54/18/54 45/19/45
f 45/19/45 48/20/48 56/17/56
f 57/21/57 58/22/58 59/23/59
f 59/23/59 60/24/60 57/21/57
f 61/25/61 62/26/62 63/27/63
f 63/27/63 64/28/64 61/25/61
f 65/29/65 66/30/66 67/31/67
f 67/31/67 68/32/68 65/29/65
f 69/33/69 64/34/64 63/35/63
f 63/35/63 70/36/70 69/33/69
f 71/33/71 61/34/61 64/35/64
f 64/35/64 69/36/69 71/33/71
f 72/33/72 62/34/62 61/35/61
f 61/35/61 71/36/71 72/33/72
f 70/33/70 63/34/63 62/35/62
f 62/35/62 72/36/72 70/33/70
f 73/37/73 69/27/69 70/28/70
f 70/28/70 74/38/74 73/37/73
f 75/39/75 71/26/71 69/27/69
f 69/27/69 73/37/73 75/39/75
f 76/40/76 72/25/72 71/26/71
f 71/26/71 75/39/75 76/40/76
f 74/38/74 70/28/70 72/25/72
f 72/25/72 76/40/76 74/38/74
f 66/41/66 73/42/73 74/43/74
f 74/43/74 67/44/67 66/41/66
f 65/41/65 75/42/75 73/43/73
f 73/43/73 66/44/66 65/41/65
f 68/41/68 76/42/76 75/43/75
f 75/43/75 65/44/65 68/41/68
f 67/41/67 74/42/74 76/43/76
f 76/43/76 68/44/68 67/41/67
f 77/45/77 78/46/78 79/47/79
f 79/47/79 80/48/80 77/45/77
f 58/49/58 57/50/57 79/51/79
f 79/51/79 78/52/78 58/49/58
f 59/53/59 58/54/58 78/55/78
f 78/55/78 77/56/77 59/53/59
f 60/57/60 59/58/59 77/59/77
f 77/59/77 80/60/80 60/57/60
f 57/61/57 60/62/60 80/63/80
f 80/63/80 79/64/79 57/61/57
f 81/1/81 82/2/82 83/3/83
f 83/3/83 84/4/84 81/1/81
f 85/5/85 86/6/86 87/7/87
f 87/7/87 88/8/88 85/5/85
f 81/9/81 84/10/84 89/11/89
f 89/11/89 90/12/90 81/9/81
f 84/9/84 83/10/83 91/11/91
f 91/11/91 89/12/89 84/9/84
f 83/9/83 82/10/82 92/11/92
f 92/11/92 91/12/91 83/9/83
f 82/9/82 81/10/81 90/11/90
f 90/11/90 92/12/92 82/9/82
f 90/4/90 89/1/89 93/13/93
f 93/13/93 94/14/94 90/4/90
f 89/1/89 91/2/91 95/15/95
f 95/15/95 93/13/93 89/1/89
f 91/2/91 92/3/92 96/16/96
f 96/16/96 95/15/95 91/2/91
f 92/3/92 90/4/90 94/14/94
f 94/14/94 96/16/96 92/3/92
f 94/17/94 93/18/93 86/19/86
f 86/19/86 85/20/85 94/17/94
f 93/17/93 95/18/95 87/19/87
f 87/19/87 86/20/86 93/17/93
f 95/17/95 96/18/96 88/19/88
f 88/19/88 87/20/87 95/17/95
f 96/17/96 94/18/94 85/19/85
f 85/19/85 88/20/88 96/17/96
f 97/21/97 98/22/98 99/23/99
f 99/23/99 100/24/100 97/21/97
f 101/25/101 102/26/102 103/27/103
f 103/27/103 104/28/104 101/25/101
f 105/29/105 106/30/106 107/31/107
f 107/31/107 108/32/108 105/29/105
f 109/33/109 104/34/104 103/35/103
f 103/35/103 110/36/110 109/33/109
f 111/33/111 101/34/101 104/35/104
f 104/35/104 109/36/109 111/33/111
f 112/33/112 102/34/102 101/35/101
f 101/35/101 111/36/111 112/33/112
f 110/33/110 103/34/103 102/35/102
f 102/35/102 112/36/112 110/33/110
f 113/37/113 109/27/109 110/28/110
f 110/28/110 114/38/114 113/37/113
f 115/39/115 111/26/111 109/27/109
f 109/27/109 113/37/113 115/39/115
f 116/40/116 112/25/112 111/26/111
f 111/26/111 115/39/115 116/40/116
f 114/38/114 110/28/110 112/25/112
f 112/25/112 116/40/116 114/38/114
f 106/41/106 113/42/113 114/43/114
f 114/43/114 107/44/107 106/41/106
f 105/41/105 115/42/115 113/43/113
f 113/43/113 106/44/106 105/41/105
f 108/41/108 116/42/116 115/43/115
f 115/43/115 105/44/105 108/41/108
f 107/41/107 114/42/114 116/43/116
f 116/43/116 108/44/108 107/41/107
f 117/45/117 118/46/118 119/47/119
f 119/47/119 120/48/120 117/45/117
f 98/49/98 97/50/97 119/51/119
f 119/51/119 118/52/118 98/49/98
f 99/53/99 98/54/98 118/55/118
f 118/55/118 117/56/117 99/53/99
f 100/57/100 99/58/99 117/59/117
f 117/59/117 120/60/120 100/57/100
f 97/61/97 100/62/100 120/63/120
f 120/63/120 119/64/119 97/61/97
# 204 faces, 64 coords texture

# End of File
