####
#
# OBJ File Generated by Meshlab
#
####
# Object chair_back_2.obj
#
# Vertices: 40
# Faces: 68
#
####
mtllib ./chair_back_2.obj.mtl

vn 1.5707964 1.5707963 1.5707964
v 2.4319999 0.3596000 3.7323999
vn 1.5707965 1.5707964 -1.5707964
v 2.4319999 0.3596000 3.2664001
vn -1.5707964 1.5707963 -1.5707964
v 1.9661000 0.3596000 3.2664001
vn -1.5707965 1.5707964 1.5707964
v 1.9661000 0.3596000 3.7323999
vn -1.6599265 -1.8895757 -1.6571274
v 2.3893001 0.3024000 3.6896000
vn 1.6599256 -1.8895857 -1.6571332
v 2.0088000 0.3024000 3.6896000
vn 1.6599255 -1.8895859 1.6571330
v 2.0088000 0.3024000 3.3092000
vn -1.6599263 -1.8895757 1.6571276
v 2.3893001 0.3024000 3.3092000
vn -1.6696974 -1.5662667 1.6696974
v 1.9661000 0.2662000 3.7323999
vn 1.6696975 -1.5662670 1.6696974
v 2.4319999 0.2662000 3.7323999
vn -1.6696975 -1.5662670 -1.6696974
v 1.9661000 0.2662000 3.2664001
vn 1.6696974 -1.5662667 -1.6696974
v 2.4319999 0.2662000 3.2664001
vn 1.1728976 -4.9497037 -1.1749656
v 2.0049000 0.2613000 3.6935999
vn -1.1728981 -4.9496956 -1.1749713
v 2.3931999 0.2613000 3.6935999
vn 1.1728973 -4.9497037 1.1749657
v 2.0049000 0.2613000 3.3052001
vn -1.1728983 -4.9496956 1.1749713
v 2.3931999 0.2613000 3.3052001
vn 1.5707967 1.5707964 1.5707963
v 2.3894000 0.6312000 3.7112999
vn -1.5707964 1.5707959 1.5707964
v 1.9993000 0.6312000 3.7112999
vn -1.5707967 -1.5707964 1.5707963
v 1.9993000 0.4824000 3.7112999
vn 1.5707964 -1.5707959 1.5707964
v 2.3894000 0.4824000 3.7112999
vn 1.5707964 -1.5707964 1.5707966
v 1.9852000 0.3401000 3.2855999
vn -1.5707961 -1.5707964 1.5707964
v 2.4129000 0.3401000 3.2855999
vn -1.5707964 -1.5707964 -1.5707966
v 2.4129000 0.3401000 3.7132001
vn 1.5707961 -1.5707964 -1.5707964
v 1.9852000 0.3401000 3.7132001
vn -1.3841945 1.0959743 -1.3817247
v 1.9897000 0.3220000 3.2901001
vn -1.3810438 1.0920258 1.3810471
v 1.9897000 0.3220000 3.7088001
vn 1.3810432 1.0920211 1.3810431
v 2.4084001 0.3220000 3.7088001
vn 1.3841934 1.0959696 -1.3817214
v 2.4084001 0.3220000 3.2901001
vn 1.0925500 1.4631755 -1.0938205
v 1.9852000 0.2857000 3.7132001
vn -1.0925515 1.4631776 -1.0938232
v 2.4129000 0.2857000 3.7132001
vn 1.0925497 1.4631780 1.0938187
v 1.9852000 0.2857000 3.2855999
vn -1.0925519 1.4631767 1.0938237
v 2.4129000 0.2857000 3.2855999
vn -2.9473300 3.2036917 2.9610462
v 1.9949000 0.2920000 3.7035999
vn 2.9473155 3.2036920 2.9610534
v 2.4031999 0.2920000 3.7035999
vn -2.9441795 3.2097816 -2.9620919
v 1.9949000 0.2920000 3.2952001
vn 2.9441652 3.2097852 -2.9621000
v 2.4031999 0.2920000 3.2952001
vn -1.5707964 -1.5707959 -1.5707963
v 1.9993000 0.4824000 3.6781001
vn -1.5707967 1.5707964 -1.5707964
v 1.9993000 0.6312000 3.6781001
vn 1.5707964 1.5707959 -1.5707963
v 2.3894000 0.6312000 3.6781001
vn 1.5707967 -1.5707964 -1.5707964
v 2.3894000 0.4824000 3.6781001
# 40 vertices, 0 vertices normals


usemtl material_0
vt 2.5520000 -1.5520000
vt 2.5520000 2.5520000
vt -1.5520000 2.5520000
f 1/1/1 2/2/2 3/3/3
vt -1.5520000 -1.5520000
f 3/3/3 4/4/4 1/1/1
vt -1.1755000 -1.1755000
vt 2.1754999 -1.1755000
vt 2.1754999 2.1754999
f 5/5/5 6/6/6 7/7/7
vt -1.1755000 2.1754999
f 7/7/7 8/8/8 5/5/5
vt -1.5520000 0.4112000
vt 2.5520000 0.4112000
vt 2.5520000 1.2174000
f 1/9/1 4/10/4 9/11/9
vt -1.5520000 1.2174000
f 9/11/9 10/12/10 1/9/1
f 4/9/4 3/10/3 11/11/11
f 11/11/11 9/12/9 4/9/4
f 3/9/3 2/10/2 12/11/12
f 12/11/12 11/12/11 3/9/3
f 2/9/2 1/10/1 10/11/10
f 10/11/10 12/12/12 2/9/2
vt 2.2105000 -1.2105000
f 10/4/10 9/1/9 13/13/13
vt -1.2105000 -1.2105000
f 13/13/13 14/14/14 10/4/10
vt 2.2105000 2.2105000
f 9/1/9 11/2/11 15/15/15
f 15/15/15 13/13/13 9/1/9
vt -1.2105000 2.2105000
f 11/2/11 12/3/12 16/16/16
f 16/16/16 15/15/15 11/2/11
f 12/3/12 10/4/10 14/14/14
f 14/14/14 16/16/16 12/3/12
vt 2.2105000 1.2589000
vt -1.2105000 1.2589000
vt -1.1755000 0.9045000
f 14/17/14 13/18/13 6/19/6
vt 2.1754999 0.9045000
f 6/19/6 5/20/5 14/17/14
f 13/17/13 15/18/15 7/19/7
f 7/19/7 6/20/6 13/17/13
f 15/17/15 16/18/16 8/19/8
f 8/19/8 7/20/7 15/17/15
f 16/17/16 14/18/14 5/19/5
f 5/19/5 8/20/8 16/17/16
vt -1.1763999 -1.9325000
vt 2.2595999 -1.9325000
vt 2.2595999 -0.6480000
f 17/21/17 18/22/18 19/23/19
vt -1.1763999 -0.6480000
f 19/23/19 20/24/20 17/21/17
vt 2.3834000 2.3834000
vt -1.3834000 2.3834000
vt -1.3834000 -1.3834000
f 21/25/21 22/26/22 23/27/23
vt 2.3834000 -1.3834000
f 23/27/23 24/28/24 21/25/21
vt -1.3441000 2.3441000
vt -1.3441000 -1.3441000
vt 2.3441000 -1.3441000
f 25/29/25 26/30/26 27/31/27
vt 2.3441000 2.3441000
f 27/31/27 28/32/28 25/29/25
vt -1.3834000 1.0487000
vt -1.3834000 0.5798000
vt 2.3834000 0.5798000
f 29/33/29 24/34/24 23/35/23
vt 2.3834000 1.0487000
f 23/35/23 30/36/30 29/33/29
f 31/33/31 21/34/21 24/35/24
f 24/35/24 29/36/29 31/33/31
f 32/33/32 22/34/22 21/35/21
f 21/35/21 31/36/31 32/33/32
f 30/33/30 23/34/23 22/35/22
f 22/35/22 32/36/32 30/33/30
vt -1.2986000 -1.2986000
f 33/37/33 29/27/29 30/28/30
vt 2.2986000 -1.2986000
f 30/28/30 34/38/34 33/37/33
vt -1.2986000 2.2986000
f 35/39/35 31/26/31 29/27/29
f 29/27/29 33/37/33 35/39/35
vt 2.2986000 2.2986000
f 36/40/36 32/25/32 31/26/31
f 31/26/31 35/39/35 36/40/36
f 34/38/34 30/28/30 32/25/32
f 32/25/32 36/40/36 34/38/34
vt 2.3441000 0.7358000
vt 2.2986000 0.9947000
vt -1.2986000 0.9947000
f 26/41/26 33/42/33 34/43/34
vt -1.3441000 0.7358000
f 34/43/34 27/44/27 26/41/26
f 25/41/25 35/42/35 33/43/33
f 33/43/33 26/44/26 25/41/25
f 28/41/28 36/42/36 35/43/35
f 35/43/35 25/44/25 28/41/28
f 27/41/27 34/42/34 36/43/36
f 36/43/36 28/44/28 27/41/27
vt -1.2596000 -0.6480000
vt -1.2596000 -1.9325000
vt 2.1763999 -1.9325000
f 37/45/37 38/46/38 39/47/39
vt 2.1763999 -0.6480000
f 39/47/39 40/48/40 37/45/37
vt -1.2596000 -1.3661000
vt 2.1763999 -1.3661000
vt 2.1763999 -1.0740000
f 18/49/18 17/50/17 39/51/39
vt -1.2596000 -1.0740000
f 39/51/39 38/52/38 18/49/18
vt -1.3661000 -0.6480000
vt -1.3661000 -1.9325000
vt -1.0740000 -1.9325000
f 19/53/19 18/54/18 38/55/38
vt -1.0740000 -0.6480000
f 38/55/38 37/56/37 19/53/19
vt -1.1763999 -1.3661000
vt 2.2595999 -1.3661000
vt 2.2595999 -1.0740000
f 20/57/20 19/58/19 37/59/37
vt -1.1763999 -1.0740000
f 37/59/37 40/60/40 20/57/20
vt 2.3661001 -1.9325000
vt 2.3661001 -0.6480000
vt 2.0739999 -0.6480000
f 17/61/17 20/62/20 40/63/40
vt 2.0739999 -1.9325000
f 40/63/40 39/64/39 17/61/17
# 68 faces, 64 coords texture

# End of File
