####
#
# OBJ File Generated by Meshlab
#
####
# Object coffee_cabin.obj
#
# Vertices: 50
# Faces: 76
#
####
mtllib ./coffee_cabin.obj.mtl

vn -1.5707966 -1.5707960 1.5707964
v -2.3059001 1.2570000 -0.0790000
vn -1.5707964 -1.5707964 -1.5707949
v -2.3059001 1.2570000 -0.8690000
vn 0.0000000 -3.1415925 -3.1415913
v -1.7559000 1.2570000 -0.8690000
vn 1.5707966 -1.5707963 -1.5707964
v -1.2059000 1.2570000 -0.8690000
vn 1.5707964 -1.5707964 1.5707948
v -1.2059000 1.2570000 -0.0790000
vn -1.5707984 -1.5707964 -1.5707963
v -2.3059001 0.4570000 -0.0690000
vn -1.5707964 1.5707948 -1.5707964
v -2.3059001 1.2570000 -0.0690000
vn 1.5707984 1.5707964 -1.5707963
v -1.2059000 1.2570000 -0.0690000
vn 1.5707964 -1.5707948 -1.5707964
v -1.2059000 0.4570000 -0.0690000
vn -1.5707965 -1.5707964 1.5707984
v -1.1959000 0.4570000 -0.0790000
vn -1.5707964 1.5707966 1.5707964
v -1.1959000 1.2570000 -0.0790000
vn -1.5707965 1.5707964 -1.5707984
v -1.1959000 1.2570000 -0.8690000
vn -1.5707964 -1.5707966 -1.5707964
v -1.1959000 0.4570000 -0.8690000
vn -1.5707964 -1.5707955 1.5707963
v -1.7226000 0.4746000 -0.8790000
vn 1.5707965 -1.5707964 1.5707964
v -1.2192000 0.4746000 -0.8790000
vn 1.5707964 1.5707955 1.5707963
v -1.2192000 1.2394000 -0.8790000
vn -1.5707965 1.5707964 1.5707964
v -1.7226000 1.2394000 -0.8790000
vn 1.5707965 -1.5707964 -1.5707984
v -2.3159001 0.4570000 -0.8690000
vn 1.5707964 1.5707966 -1.5707964
v -2.3159001 1.2570000 -0.8690000
vn 1.5707965 1.5707964 1.5707984
v -2.3159001 1.2570000 -0.0790000
vn 1.5707964 -1.5707966 1.5707964
v -2.3159001 0.4570000 -0.0790000
vn -1.5707964 -1.5707955 1.5707963
v -2.2925999 0.4746000 -0.8790000
vn 1.5707965 -1.5707964 1.5707964
v -1.7891999 0.4746000 -0.8790000
vn 1.5707964 1.5707955 1.5707963
v -1.7891999 1.2394000 -0.8790000
vn -1.5707965 1.5707964 1.5707964
v -2.2925999 1.2394000 -0.8790000
vn -1.5707964 1.5707960 1.5707948
v -2.3059001 1.2670000 -0.0790000
vn 1.5707966 1.5707964 1.5707964
v -1.2059000 1.2670000 -0.0790000
vn 1.5707964 1.5707963 -1.5707949
v -1.2059000 1.2670000 -0.8690000
vn 0.0000000 3.1415925 -3.1415913
v -1.7559000 1.2670000 -0.8690000
vn -1.5707966 1.5707964 -1.5707964
v -2.3059001 1.2670000 -0.8690000
vn -1.5707964 -1.5707948 1.5707964
v -2.3059001 0.4570000 -0.0590000
vn 1.5707984 -1.5707964 1.5707963
v -1.2059000 0.4570000 -0.0590000
vn 1.5707964 1.5707948 1.5707964
v -1.2059000 1.2570000 -0.0590000
vn -1.5707984 1.5707964 1.5707963
v -2.3059001 1.2570000 -0.0590000
vn 1.5707964 -1.5707966 1.5707964
v -1.1859000 0.4570000 -0.0790000
vn 1.5707965 -1.5707964 -1.5707984
v -1.1859000 0.4570000 -0.8690000
vn 1.5707964 1.5707966 -1.5707964
v -1.1859000 1.2570000 -0.8690000
vn 1.5707965 1.5707964 1.5707984
v -1.1859000 1.2570000 -0.0790000
vn -1.5707964 1.5707955 -1.5707964
v -1.7226000 1.2394000 -0.8890000
vn 1.5707965 1.5707964 -1.5707963
v -1.2192000 1.2394000 -0.8890000
vn 1.5707964 -1.5707955 -1.5707964
v -1.2192000 0.4746000 -0.8890000
vn -1.5707965 -1.5707964 -1.5707963
v -1.7226000 0.4746000 -0.8890000
vn -1.5707964 -1.5707966 -1.5707964
v -2.3259001 0.4570000 -0.8690000
vn -1.5707965 -1.5707964 1.5707984
v -2.3259001 0.4570000 -0.0790000
vn -1.5707964 1.5707966 1.5707964
v -2.3259001 1.2570000 -0.0790000
vn -1.5707965 1.5707964 -1.5707984
v -2.3259001 1.2570000 -0.8690000
vn 1.5707964 -1.5707955 -1.5707964
v -1.7891999 0.4746000 -0.8890000
vn -1.5707965 -1.5707964 -1.5707963
v -2.2925999 0.4746000 -0.8890000
vn -1.5707964 1.5707955 -1.5707964
v -2.2925999 1.2394000 -0.8890000
vn 1.5707965 1.5707964 -1.5707963
v -1.7891999 1.2394000 -0.8890000
# 50 vertices, 0 vertices normals


usemtl material_0
vt 0.0000000 0.0000000
vt 0.0000000 1.0000000
vt 0.5000000 1.0000000
f 1/1/1 2/2/2 3/3/3
vt 1.0000000 1.0000000
f 1/1/1 3/3/3 4/4/4
vt 1.0000000 0.0000000
f 1/1/1 4/4/4 5/5/5
f 6/1/6 7/2/7 8/4/8
f 8/4/8 9/5/9 6/1/6
f 10/1/10 11/2/11 12/4/12
f 12/4/12 13/5/13 10/1/10
vt 0.5000000 0.0000000
f 14/6/14 15/1/15 16/2/16
f 16/2/16 17/3/17 14/6/14
f 18/1/18 19/2/19 20/4/20
f 20/4/20 21/5/21 18/1/18
f 22/5/22 23/6/23 24/3/24
f 24/3/24 25/4/25 22/5/22
f 26/1/26 1/1/1 5/5/5
f 5/5/5 27/5/27 26/1/26
f 27/5/27 5/5/5 4/4/4
f 4/4/4 28/4/28 27/5/27
f 28/4/28 4/4/4 3/3/3
f 3/3/3 29/3/29 28/4/28
f 29/3/29 3/3/3 2/2/2
f 2/2/2 30/2/30 29/3/29
f 30/2/30 2/2/2 1/1/1
f 1/1/1 26/1/26 30/2/30
f 31/1/31 6/1/6 9/5/9
f 9/5/9 32/5/32 31/1/31
f 32/5/32 9/5/9 8/4/8
f 8/4/8 33/4/33 32/5/32
f 33/4/33 8/4/8 7/2/7
f 7/2/7 34/2/34 33/4/33
f 34/2/34 7/2/7 6/1/6
f 6/1/6 31/1/31 34/2/34
f 35/1/35 10/1/10 13/5/13
f 13/5/13 36/5/36 35/1/35
f 36/5/36 13/5/13 12/4/12
f 12/4/12 37/4/37 36/5/36
f 37/4/37 12/4/12 11/2/11
f 11/2/11 38/2/38 37/4/37
f 38/2/38 11/2/11 10/1/10
f 10/1/10 35/1/35 38/2/38
f 39/3/39 17/3/17 16/2/16
f 16/2/16 40/2/40 39/3/39
f 40/2/40 16/2/16 15/1/15
f 15/1/15 41/1/41 40/2/40
f 41/1/41 15/1/15 14/6/14
f 14/6/14 42/6/42 41/1/41
f 42/6/42 14/6/14 17/3/17
f 17/3/17 39/3/39 42/6/42
f 43/1/43 18/1/18 21/5/21
f 21/5/21 44/5/44 43/1/43
f 44/5/44 21/5/21 20/4/20
f 20/4/20 45/4/45 44/5/44
f 45/4/45 20/4/20 19/2/19
f 19/2/19 46/2/46 45/4/45
f 46/2/46 19/2/19 18/1/18
f 18/1/18 43/1/43 46/2/46
f 47/6/47 23/6/23 22/5/22
f 22/5/22 48/5/48 47/6/47
f 48/5/48 22/5/22 25/4/25
f 25/4/25 49/4/49 48/5/48
f 49/4/49 25/4/25 24/3/24
f 24/3/24 50/3/50 49/4/49
f 50/3/50 24/3/24 23/6/23
f 23/6/23 47/6/47 50/3/50
f 26/1/26 27/5/27 28/4/28
f 26/1/26 28/4/28 29/3/29
f 26/1/26 29/3/29 30/2/30
f 34/2/34 31/1/31 32/5/32
f 32/5/32 33/4/33 34/2/34
f 46/2/46 43/1/43 44/5/44
f 44/5/44 45/4/45 46/2/46
f 50/3/50 47/6/47 48/5/48
f 48/5/48 49/4/49 50/3/50
f 42/6/42 39/3/39 40/2/40
f 40/2/40 41/1/41 42/6/42
f 38/2/38 35/1/35 36/5/36
f 36/5/36 37/4/37 38/2/38
# 76 faces, 6 coords texture

# End of File
