# Blender 4.2.1 LTS
# www.blender.org
mtllib eyebrow.mtl
o eyebrow002Mesh
v 0.017935 1.608702 0.148423
v 0.013785 1.607437 0.147838
v 0.016205 1.614149 0.153697
v 0.011159 1.612340 0.153564
v 0.021769 1.610111 0.148814
v 0.020666 1.615312 0.153324
v 0.027821 1.611541 0.149466
v 0.026069 1.616404 0.152606
v 0.033173 1.612996 0.149402
v 0.033311 1.617987 0.151511
v 0.038448 1.614377 0.148304
v 0.039127 1.619234 0.149122
v 0.043394 1.614544 0.145648
v 0.044625 1.619651 0.145178
v 0.047177 1.613178 0.142521
v 0.049116 1.617387 0.141000
v 0.052213 1.611160 0.135913
v 0.053737 1.613830 0.134531
v 0.055637 1.609128 0.130195
v 0.056327 1.611032 0.129663
v 0.057586 1.608049 0.127015
v 0.058250 1.609332 0.126458
v 0.010658 1.606267 0.148695
v 0.008714 1.609671 0.152660
v 0.017672 1.609136 0.150885
v 0.013536 1.607902 0.149775
v 0.021654 1.610651 0.150371
v 0.027469 1.611968 0.150701
v 0.032762 1.613606 0.150619
v 0.038660 1.615192 0.149244
v 0.043892 1.615552 0.146205
v 0.048000 1.614181 0.142913
v 0.052744 1.611891 0.136787
v 0.055609 1.609781 0.132020
v 0.057402 1.608410 0.127871
v 0.011083 1.607274 0.149534
v 0.016138 1.613477 0.155216
v 0.020742 1.614423 0.154797
v 0.026492 1.615287 0.154194
v 0.033113 1.616839 0.153123
v 0.039080 1.618021 0.150359
v 0.044232 1.618708 0.146336
v 0.049019 1.616700 0.141903
v 0.053364 1.613503 0.135844
v 0.056119 1.611039 0.131482
v 0.057853 1.608996 0.127503
v 0.011972 1.611604 0.154805
v 0.009679 1.609685 0.153640
v 0.017119 1.611122 0.154940
v 0.021042 1.611932 0.154852
v 0.026942 1.613392 0.153864
v 0.033127 1.615290 0.152996
v 0.039007 1.616662 0.150416
v 0.044453 1.617064 0.146672
v 0.048546 1.615438 0.142602
v 0.052900 1.612704 0.137309
v 0.055831 1.610407 0.132370
v 0.058113 1.608494 0.127266
v 0.012785 1.609831 0.154217
v 0.009881 1.607738 0.152776
v 0.008974 1.607128 0.149933
v 0.058574 1.608687 0.125050
v -0.017935 1.608702 0.148423
v -0.013785 1.607437 0.147838
v -0.016205 1.614149 0.153697
v -0.011159 1.612340 0.153564
v -0.021769 1.610111 0.148814
v -0.020666 1.615312 0.153324
v -0.027821 1.611541 0.149466
v -0.026069 1.616404 0.152606
v -0.033173 1.612996 0.149402
v -0.033311 1.617987 0.151511
v -0.038448 1.614377 0.148304
v -0.039127 1.619234 0.149122
v -0.043394 1.614544 0.145648
v -0.044625 1.619650 0.145178
v -0.047177 1.613178 0.142521
v -0.049116 1.617387 0.141000
v -0.052212 1.611160 0.135913
v -0.053737 1.613830 0.134531
v -0.055637 1.609128 0.130195
v -0.056327 1.611032 0.129663
v -0.057586 1.608049 0.127015
v -0.058250 1.609332 0.126458
v -0.010658 1.606267 0.148695
v -0.008714 1.609671 0.152660
v -0.017672 1.609136 0.150885
v -0.013536 1.607902 0.149775
v -0.021654 1.610651 0.150371
v -0.027469 1.611968 0.150701
v -0.032762 1.613606 0.150619
v -0.038660 1.615192 0.149244
v -0.043892 1.615552 0.146205
v -0.048000 1.614181 0.142913
v -0.052744 1.611891 0.136787
v -0.055609 1.609781 0.132020
v -0.057402 1.608410 0.127871
v -0.011083 1.607274 0.149534
v -0.016138 1.613477 0.155216
v -0.020742 1.614423 0.154797
v -0.026492 1.615287 0.154194
v -0.033113 1.616839 0.153123
v -0.039080 1.618021 0.150359
v -0.044232 1.618708 0.146336
v -0.049019 1.616700 0.141903
v -0.053364 1.613503 0.135844
v -0.056119 1.611039 0.131482
v -0.057853 1.608996 0.127503
v -0.011972 1.611604 0.154805
v -0.009679 1.609685 0.153640
v -0.017119 1.611122 0.154940
v -0.021042 1.611932 0.154852
v -0.026942 1.613392 0.153864
v -0.033127 1.615290 0.152996
v -0.039007 1.616662 0.150416
v -0.044453 1.617064 0.146672
v -0.048546 1.615438 0.142602
v -0.052900 1.612704 0.137309
v -0.055831 1.610407 0.132370
v -0.058113 1.608494 0.127266
v -0.012785 1.609831 0.154217
v -0.009881 1.607738 0.152776
v -0.008974 1.607128 0.149933
v -0.058574 1.608687 0.125050
vn -0.3621 0.1719 0.9161
vn -0.1755 0.3521 0.9194
vn -0.2831 0.8817 0.3775
vn -0.5454 0.6650 0.5102
vn 0.2701 -0.8908 0.3655
vn 0.2898 -0.9368 0.1961
vn 0.2527 -0.9299 0.2672
vn 0.2637 -0.9054 0.3327
vn 0.2097 -0.9117 0.3533
vn 0.2229 -0.9089 0.3524
vn 0.2825 -0.8497 0.4452
vn 0.2966 -0.8347 0.4640
vn 0.3243 -0.7767 0.5400
vn 0.3555 -0.7475 0.5611
vn 0.3580 -0.6750 0.6451
vn 0.4168 -0.5931 0.6888
vn 0.4629 -0.6231 0.6304
vn 0.5679 -0.4524 0.6876
vn 0.4376 -0.7139 0.5466
vn 0.5879 -0.5311 0.6102
vn 0.2291 -0.8679 0.4407
vn 0.4196 -0.7540 0.5054
vn 0.0929 -0.9303 0.3550
vn 0.3727 -0.8189 0.4364
vn -0.7003 0.1514 0.6976
vn -0.5088 -0.0768 0.8575
vn 0.2469 -0.9452 0.2137
vn 0.2544 -0.8920 0.3737
vn 0.1655 -0.6693 0.7243
vn 0.2500 -0.6873 0.6820
vn 0.2397 -0.6836 0.6894
vn 0.3253 -0.6129 0.7201
vn 0.4490 -0.4972 0.7424
vn 0.5884 -0.2363 0.7732
vn 0.7206 -0.0712 0.6897
vn 0.8027 -0.0463 0.5945
vn 0.8731 -0.0625 0.4835
vn 0.9003 -0.1087 0.4215
vn 0.2939 -0.8927 0.3417
vn 0.1525 -0.9653 0.2121
vn 0.1430 -0.7239 0.6750
vn 0.1508 -0.8216 0.5497
vn 0.0251 0.4123 0.9107
vn -0.1074 0.8784 0.4658
vn 0.0588 0.4102 0.9101
vn -0.0849 0.8242 0.5599
vn 0.1573 0.4317 0.8882
vn -0.0001 0.8070 0.5906
vn 0.4055 0.4071 0.8184
vn 0.2566 0.7399 0.6219
vn 0.6307 0.3397 0.6977
vn 0.5684 0.5392 0.6214
vn 0.7755 0.2625 0.5742
vn 0.7716 0.4063 0.4894
vn 0.8486 0.2418 0.4705
vn 0.8459 0.3844 0.3696
vn 0.8947 0.2989 0.3318
vn 0.8643 0.4467 0.2312
vn 0.9155 0.3139 0.2518
vn 0.8597 0.4957 0.1231
vn -0.1528 -0.9141 0.3756
vn 0.9340 -0.0191 0.3566
vn 0.2139 0.0748 0.9740
vn 0.3845 0.6653 0.6399
vn 0.2302 0.7881 0.5709
vn 0.0744 0.3261 0.9424
vn -0.2222 -0.9129 0.3424
vn -0.2535 -0.8961 0.3644
vn -0.2746 -0.8951 0.3513
vn -0.2856 -0.9138 0.2888
vn -0.2788 -0.8417 0.4623
vn -0.2245 -0.8718 0.4354
vn -0.3436 -0.7517 0.5630
vn -0.2994 -0.7878 0.5382
vn -0.4465 -0.5919 0.6711
vn -0.3862 -0.6751 0.6286
vn -0.5261 -0.4311 0.7330
vn -0.4066 -0.5900 0.6976
vn -0.4754 -0.5459 0.6899
vn -0.3227 -0.7221 0.6119
vn -0.3008 -0.7730 0.5585
vn -0.1222 -0.8807 0.4576
vn -0.2783 -0.8252 0.4916
vn 0.0667 -0.9340 0.3509
vn -0.5249 -0.7685 0.3658
vn -0.5383 -0.8191 0.1980
vn 0.5923 -0.3440 0.7286
vn 0.8416 -0.2369 0.4854
vn -0.2895 -0.8783 0.3806
vn -0.2287 -0.9008 0.3691
vn -0.1747 -0.7341 0.6562
vn -0.2250 -0.6814 0.6965
vn -0.2727 -0.6357 0.7222
vn -0.3650 -0.5069 0.7809
vn -0.5288 -0.2400 0.8141
vn -0.6417 -0.0447 0.7657
vn -0.7517 0.0228 0.6592
vn -0.8196 -0.0199 0.5726
vn -0.8220 -0.2032 0.5320
vn -0.8035 -0.4751 0.3586
vn -0.3283 -0.6823 0.6532
vn -0.2799 -0.8580 0.4306
vn -0.1312 -0.7819 0.6095
vn 0.1970 -0.7761 0.5990
vn 0.1226 0.8201 0.5590
vn -0.0029 0.3901 0.9208
vn 0.0888 0.8112 0.5780
vn -0.0262 0.4442 0.8955
vn -0.0024 0.7777 0.6286
vn -0.1468 0.4675 0.8717
vn -0.2618 0.6794 0.6855
vn -0.4145 0.4145 0.8102
vn -0.5658 0.5880 0.5780
vn -0.6245 0.3578 0.6943
vn -0.7750 0.4834 0.4071
vn -0.7919 0.3397 0.5075
vn -0.8254 0.5123 0.2372
vn -0.8512 0.3914 0.3496
vn -0.8539 0.4790 0.2035
vn -0.8787 0.3824 0.2859
vn -0.9151 0.1182 0.3856
vn -0.9215 0.1909 0.3383
vn 0.5921 -0.6053 0.5320
vn -0.8108 -0.5589 0.1740
vt 0.081400 0.627700
vt 0.142700 0.647100
vt 0.144700 0.670000
vt 0.075100 0.650200
vt 0.155500 0.589100
vt 0.168900 0.571600
vt 0.229400 0.589900
vt 0.222700 0.605500
vt 0.326400 0.612300
vt 0.322300 0.628800
vt 0.431100 0.619800
vt 0.430300 0.634000
vt 0.554900 0.633000
vt 0.559600 0.645500
vt 0.671800 0.621700
vt 0.677800 0.631600
vt 0.744400 0.592800
vt 0.746700 0.603500
vt 0.818300 0.562200
vt 0.825000 0.569600
vt 0.882600 0.536000
vt 0.886400 0.541700
vt 0.958400 0.500000
vt 0.955900 0.506500
vt 0.030800 0.614200
vt 0.044300 0.605900
vt 0.091500 0.551200
vt 0.085900 0.572300
vt 0.146500 0.618700
vt 0.215800 0.639900
vt 0.317100 0.650600
vt 0.429200 0.657100
vt 0.563900 0.665500
vt 0.683700 0.642600
vt 0.749600 0.612300
vt 0.831600 0.577100
vt 0.894300 0.548700
vt 0.955700 0.513100
vt 0.049600 0.567200
vt 0.044200 0.541400
vt 0.088800 0.602300
vt 0.047500 0.588100
vt 0.212800 0.662900
vt 0.220000 0.684100
vt 0.322800 0.674800
vt 0.332300 0.692700
vt 0.436000 0.679600
vt 0.445500 0.700300
vt 0.567200 0.689900
vt 0.572000 0.712800
vt 0.694900 0.659800
vt 0.704300 0.669100
vt 0.758500 0.626000
vt 0.766900 0.634400
vt 0.839300 0.586700
vt 0.845100 0.592600
vt 0.900200 0.552900
vt 0.904100 0.555800
vt 0.957100 0.517400
vt 0.962100 0.520000
vt 0.032800 0.581200
vt 0.963600 0.510300
vt 0.912100 0.278000
vt 0.918200 0.300100
vt 0.848600 0.319800
vt 0.850700 0.298100
vt 0.837900 0.238900
vt 0.770700 0.255800
vt 0.764100 0.239900
vt 0.824600 0.221400
vt 0.671200 0.278700
vt 0.667100 0.262100
vt 0.563200 0.285300
vt 0.562500 0.269800
vt 0.433500 0.296500
vt 0.438600 0.284500
vt 0.315000 0.281700
vt 0.321100 0.272100
vt 0.246900 0.252900
vt 0.249300 0.242100
vt 0.168600 0.218900
vt 0.175100 0.211700
vt 0.107300 0.190600
vt 0.111100 0.185200
vt 0.037800 0.155800
vt 0.035600 0.148800
vt 0.948700 0.256000
vt 0.962500 0.264200
vt 0.902000 0.200800
vt 0.907000 0.222500
vt 0.846800 0.268500
vt 0.777500 0.289700
vt 0.675900 0.301000
vt 0.564000 0.306900
vt 0.429300 0.316600
vt 0.309200 0.292600
vt 0.243900 0.261700
vt 0.162000 0.226300
vt 0.099400 0.197700
vt 0.038100 0.161900
vt 0.949300 0.191300
vt 0.943900 0.217500
vt 0.904400 0.252000
vt 0.945700 0.238400
vt 0.773300 0.334100
vt 0.780300 0.313800
vt 0.660900 0.342500
vt 0.670300 0.325300
vt 0.547700 0.350000
vt 0.557100 0.331100
vt 0.421200 0.362400
vt 0.426100 0.340400
vt 0.289000 0.318400
vt 0.298400 0.309200
vt 0.226500 0.283500
vt 0.235000 0.275400
vt 0.148300 0.241700
vt 0.154200 0.235900
vt 0.089400 0.204700
vt 0.093400 0.201900
vt 0.031700 0.168800
vt 0.036900 0.166100
vt 0.960800 0.231400
vt 0.031000 0.158600
s 1
usemtl eyebrow002.002
f 47/1/1 37/2/2 3/3/3 4/4/4
f 25/5/5 1/6/6 5/7/7 27/8/8
f 27/8/8 5/7/7 7/9/9 28/10/10
f 28/10/10 7/9/9 9/11/11 29/12/12
f 29/12/12 9/11/11 11/13/13 30/14/14
f 30/14/14 11/13/13 13/15/15 31/16/16
f 31/16/16 13/15/15 15/17/17 32/18/18
f 32/18/18 15/17/17 17/19/19 33/20/20
f 33/20/20 17/19/19 19/21/21 34/22/22
f 34/22/22 19/21/21 21/23/23 35/24/24
f 47/1/1 4/4/4 24/25/25 48/26/26
f 2/27/27 1/6/6 25/5/5 26/28/28
f 49/29/29 25/5/5 27/8/8 50/30/30
f 50/30/30 27/8/8 28/10/10 51/31/31
f 51/31/31 28/10/10 29/12/12 52/32/32
f 52/32/32 29/12/12 30/14/14 53/33/33
f 53/33/33 30/14/14 31/16/16 54/34/34
f 54/34/34 31/16/16 32/18/18 55/35/35
f 55/35/35 32/18/18 33/20/20 56/36/36
f 56/36/36 33/20/20 34/22/22 57/37/37
f 57/37/37 34/22/22 35/24/24 58/38/38
f 2/27/27 26/28/28 36/39/39 23/40/40
f 59/41/41 49/29/29 37/2/2 47/1/1
f 59/41/41 47/1/1 48/26/26 60/42/42
f 3/3/3 37/2/2 38/43/43 6/44/44
f 6/44/44 38/43/43 39/45/45 8/46/46
f 8/46/46 39/45/45 40/47/47 10/48/48
f 10/48/48 40/47/47 41/49/49 12/50/50
f 12/50/50 41/49/49 42/51/51 14/52/52
f 14/52/52 42/51/51 43/53/53 16/54/54
f 16/54/54 43/53/53 44/55/55 18/56/56
f 18/56/56 44/55/55 45/57/57 20/58/58
f 20/58/58 45/57/57 46/59/59 22/60/60
f 60/42/42 48/26/26 24/25/25 61/61/61
f 58/38/38 35/24/24 21/23/23 62/62/62
f 37/2/2 49/29/29 50/30/30 38/43/43
f 38/43/43 50/30/30 51/31/31 39/45/45
f 39/45/45 51/31/31 52/32/32 40/47/47
f 40/47/47 52/32/32 53/33/33 41/49/49
f 41/49/49 53/33/33 54/34/34 42/51/51
f 42/51/51 54/34/34 55/35/35 43/53/53
f 43/53/53 55/35/35 56/36/36 44/55/55
f 44/55/55 56/36/36 57/37/37 45/57/57
f 45/57/57 57/37/37 58/38/38 46/59/59
f 26/28/28 25/5/5 49/29/29 59/41/41
f 26/28/28 59/41/41 60/42/42 36/39/39
f 36/39/39 60/42/42 61/61/61 23/40/40
f 46/59/59 58/38/38 62/62/62 22/60/60
f 109/63/63 66/64/64 65/65/65 99/66/66
f 87/67/67 89/68/68 67/69/69 63/70/70
f 89/68/68 90/71/71 69/72/72 67/69/69
f 90/71/71 91/73/73 71/74/74 69/72/72
f 91/73/73 92/75/75 73/76/76 71/74/74
f 92/75/75 93/77/77 75/78/78 73/76/76
f 93/77/77 94/79/79 77/80/80 75/78/78
f 94/79/79 95/81/81 79/82/82 77/80/80
f 95/81/81 96/83/83 81/84/84 79/82/82
f 96/83/83 97/85/85 83/86/86 81/84/84
f 109/63/63 110/87/87 86/88/88 66/64/64
f 64/89/89 88/90/90 87/67/67 63/70/70
f 111/91/91 112/92/92 89/68/68 87/67/67
f 112/92/92 113/93/93 90/71/71 89/68/68
f 113/93/93 114/94/94 91/73/73 90/71/71
f 114/94/94 115/95/95 92/75/75 91/73/73
f 115/95/95 116/96/96 93/77/77 92/75/75
f 116/96/96 117/97/97 94/79/79 93/77/77
f 117/97/97 118/98/98 95/81/81 94/79/79
f 118/98/98 119/99/99 96/83/83 95/81/81
f 119/99/99 120/100/100 97/85/85 96/83/83
f 64/89/89 85/101/101 98/102/102 88/90/90
f 121/103/103 109/63/63 99/66/66 111/91/91
f 121/103/103 122/104/104 110/87/87 109/63/63
f 65/65/65 68/105/105 100/106/106 99/66/66
f 68/105/105 70/107/107 101/108/108 100/106/106
f 70/107/107 72/109/109 102/110/110 101/108/108
f 72/109/109 74/111/111 103/112/112 102/110/110
f 74/111/111 76/113/113 104/114/114 103/112/112
f 76/113/113 78/115/115 105/116/116 104/114/114
f 78/115/115 80/117/117 106/118/118 105/116/116
f 80/117/117 82/119/119 107/120/120 106/118/118
f 82/119/119 84/121/121 108/122/122 107/120/120
f 122/104/104 123/123/123 86/88/88 110/87/87
f 120/100/100 124/124/124 83/86/86 97/85/85
f 99/66/66 100/106/106 112/92/92 111/91/91
f 100/106/106 101/108/108 113/93/93 112/92/92
f 101/108/108 102/110/110 114/94/94 113/93/93
f 102/110/110 103/112/112 115/95/95 114/94/94
f 103/112/112 104/114/114 116/96/96 115/95/95
f 104/114/114 105/116/116 117/97/97 116/96/96
f 105/116/116 106/118/118 118/98/98 117/97/97
f 106/118/118 107/120/120 119/99/99 118/98/98
f 107/120/120 108/122/122 120/100/100 119/99/99
f 88/90/90 121/103/103 111/91/91 87/67/67
f 88/90/90 98/102/102 122/104/104 121/103/103
f 98/102/102 85/101/101 123/123/123 122/104/104
f 108/122/122 84/121/121 124/124/124 120/100/100
