# Blender 3.4.0
# www.blender.org
mtllib marker_board_a4size.mtl
o Cube
v 0.105000 -0.002500 0.148500
v 0.105000 -0.002500 -0.148500
v -0.105000 -0.002500 0.148500
v -0.105000 -0.002500 -0.148500
v 0.105000 0.002500 0.148500
v 0.105000 0.002500 -0.148500
v -0.105000 0.002500 0.148500
v -0.105000 0.002500 -0.148500
vn -0.0000 -0.0000 1.0000
vn -1.0000 -0.0000 -0.0000
vn -0.0000 1.0000 -0.0000
vn -0.0000 -0.0000 -1.0000
vn -0.0000 -1.0000 -0.0000
vn 1.0000 -0.0000 -0.0000
vt 0.439356 0.655707
vt 1.000000 1.000000
vt 0.617857 0.993653
vt 0.504332 0.512903
vt 1.000000 0.000000
vt 0.367857 0.993653
vt 0.439356 0.671712
vt 0.639286 0.809064
vt 0.000000 1.000000
vt 0.389286 0.809064
vt 0.504332 0.762903
vt 0.000000 0.000000
vt 0.551120 0.655707
vt 0.615476 0.190252
vt 0.617857 0.975702
vt 0.365476 0.190252
vt 0.490906 0.512903
vt 0.367857 0.975702
vt 0.551120 0.671712
vt 0.639286 0.840936
vt 0.615476 0.166200
vt 0.389286 0.840936
vt 0.365476 0.166200
vt 0.490906 0.762903
s 0
usemtl Material
f 1/1/1 5/13/1 7/19/1 3/7/1
f 4/10/2 3/8/2 7/20/2 8/22/2
f 8/23/3 7/21/3 5/14/3 6/16/3
f 6/17/4 2/4/4 4/11/4 8/24/4
f 2/5/5 1/2/5 3/9/5 4/12/5
f 6/18/6 5/15/6 1/3/6 2/6/6
