####
#
# OBJ File Generated by Meshlab
#
####
# Object table_foot_2.obj
#
# Vertices: 76
# Faces: 140
#
####
mtllib ./table_foot_2.obj.mtl

vn 0.0000006 -2.3608608 2.9052517
v 2.2093999 0.0759000 2.7333000
vn -2.0503559 -2.3515284 2.0503569
v 2.1884999 0.0759000 2.7247000
vn -2.9052517 -2.3608608 0.0000006
v 2.1798999 0.0759000 2.7038000
vn -2.0503569 -2.3515284 -2.0503559
v 2.1884999 0.0759000 2.6829000
vn -0.0000006 -2.3608608 -2.9052517
v 2.2093999 0.0759000 2.6743000
vn 2.0503559 -2.3515284 -2.0503569
v 2.2302999 0.0759000 2.6829000
vn 2.9052515 -2.3608608 -0.0000006
v 2.2388999 0.0759000 2.7038000
vn 2.0503569 -2.3515284 2.0503559
v 2.2302999 0.0759000 2.7247000
vn 2.0503569 2.3515284 -2.0503559
v 2.2302999 0.6496000 2.6829000
vn 2.9052515 2.3608608 0.0000006
v 2.2388999 0.6496000 2.7038000
vn 0.0000006 2.3608608 -2.9052515
v 2.2093999 0.6496000 2.6743000
vn -2.0503559 2.3515284 -2.0503569
v 2.1884999 0.6496000 2.6829000
vn -2.9052515 2.3608608 -0.0000006
v 2.1798999 0.6496000 2.7038000
vn -2.0503569 2.3515284 2.0503559
v 2.1884999 0.6496000 2.7247000
vn -0.0000006 2.3608608 2.9052515
v 2.2093999 0.6496000 2.7333000
vn 2.0503559 2.3515284 2.0503569
v 2.2302999 0.6496000 2.7247000
vn 0.0000000 6.2831855 0.0000000
v 2.2093999 0.0759000 2.7038000
vn 2.6280599 2.6178303 1.5170246
v 2.2825000 0.0759000 2.7460001
vn 3.0346777 2.6183193 -0.0000022
v 2.2938001 0.0759000 2.7038000
vn 1.5170168 2.6178250 2.6280622
v 2.2516000 0.0759000 2.7769001
vn -0.0000021 2.6183298 3.0346820
v 2.2093999 0.0759000 2.7881999
vn -1.5188158 2.6162074 2.6262619
v 2.1672001 0.0759000 2.7769001
vn -2.6298566 2.6194496 1.5152249
v 2.1364000 0.0759000 2.7460001
vn -3.0346777 2.6183193 -0.0000021
v 2.1250999 0.0759000 2.7038000
vn -2.6280594 2.6178317 -1.5170268
v 2.1364000 0.0759000 2.6616001
vn -1.5170270 2.6178317 -2.6280594
v 2.1672001 0.0759000 2.6308000
vn -0.0000022 2.6183193 -3.0346777
v 2.2093999 0.0759000 2.6194999
vn 1.5152251 2.6194496 -2.6298568
v 2.2516000 0.0759000 2.6308000
vn 2.6262596 2.6162128 -1.5188239
v 2.2825000 0.0759000 2.6616001
vn 2.6280599 -2.6178303 1.5170248
v 2.2825000 0.0422000 2.7460001
vn 3.0346780 -2.6183193 -0.0000021
v 2.2938001 0.0422000 2.7038000
vn 1.5170166 -2.6178250 2.6280620
v 2.2516000 0.0422000 2.7769001
vn -0.0000021 -2.6183298 3.0346823
v 2.2093999 0.0422000 2.7881999
vn -1.5188158 -2.6162074 2.6262617
v 2.1672001 0.0422000 2.7769001
vn -2.6298568 -2.6194496 1.5152251
v 2.1364000 0.0422000 2.7460001
vn -3.0346777 -2.6183193 -0.0000022
v 2.1250999 0.0422000 2.7038000
vn -2.6280594 -2.6178317 -1.5170269
v 2.1364000 0.0422000 2.6616001
vn -1.5170268 -2.6178317 -2.6280594
v 2.1672001 0.0422000 2.6308000
vn -0.0000022 -2.6183193 -3.0346780
v 2.2093999 0.0422000 2.6194999
vn 1.5152251 -2.6194496 -2.6298566
v 2.2516000 0.0422000 2.6308000
vn 2.6262598 -2.6162128 -1.5188237
v 2.2825000 0.0422000 2.6616001
vn 0.0000000 -6.2831855 0.0000000
v 2.2093999 0.0422000 2.7038000
vn 0.0000000 6.2831855 0.0000000
v 2.2093999 0.0422000 2.7038000
vn 2.8460228 2.7472973 1.1794486
v 2.4043000 0.0422000 2.7844999
vn 3.0816085 2.7501376 -0.0000001
v 2.4203000 0.0422000 2.7038000
vn 2.1791806 2.7508438 2.1791770
v 2.3585000 0.0422000 2.8529000
vn 1.1794498 2.7472951 2.8460219
v 2.2901001 0.0422000 2.8987000
vn -0.0000008 2.7501383 3.0816088
v 2.2093999 0.0422000 2.9147000
vn -1.1794506 2.7472956 2.8460217
v 2.1287000 0.0422000 2.8987000
vn -2.1800618 2.7498345 2.1778593
v 2.0603001 0.0422000 2.8529000
vn -2.8465388 2.7494986 1.1799676
v 2.0146000 0.0422000 2.7844999
vn -3.0808780 2.7477531 0.0000000
v 1.9985000 0.0422000 2.7038000
vn -2.8465385 2.7494986 -1.1799678
v 2.0146000 0.0422000 2.6231000
vn -2.1787410 2.7488232 -2.1787426
v 2.0603001 0.0422000 2.5546999
vn -1.1799688 2.7495008 -2.8465385
v 2.1287000 0.0422000 2.5090001
vn -0.0000009 2.7477510 -3.0808771
v 2.2093999 0.0422000 2.4928999
vn 1.1799680 2.7495003 -2.8465393
v 2.2901001 0.0422000 2.5090001
vn 2.1778598 2.7498322 -2.1800604
v 2.3585000 0.0422000 2.5546999
vn 2.8460228 2.7472973 -1.1794485
v 2.4043000 0.0422000 2.6231000
vn 2.8460226 -2.7472973 1.1794486
v 2.4043000 0.0000000 2.7844999
vn 3.0816088 -2.7501376 0.0000000
v 2.4203000 0.0000000 2.7038000
vn 2.1791804 -2.7508438 2.1791770
v 2.3585000 0.0000000 2.8529000
vn 1.1794498 -2.7472951 2.8460217
v 2.2901001 -0.0000000 2.8987000
vn -0.0000008 -2.7501383 3.0816090
v 2.2093999 -0.0000000 2.9147000
vn -1.1794505 -2.7472956 2.8460214
v 2.1287000 -0.0000000 2.8987000
vn -2.1800616 -2.7498345 2.1778595
v 2.0603001 0.0000000 2.8529000
vn -2.8465388 -2.7494986 1.1799678
v 2.0146000 0.0000000 2.7844999
vn -3.0808780 -2.7477531 0.0000000
v 1.9985000 0.0000000 2.7038000
vn -2.8465388 -2.7494986 -1.1799678
v 2.0146000 0.0000000 2.6231000
vn -2.1787410 -2.7488232 -2.1787426
v 2.0603001 0.0000000 2.5546999
vn -1.1799688 -2.7495008 -2.8465390
v 2.1287000 0.0000000 2.5090001
vn -0.0000008 -2.7477510 -3.0808768
v 2.2093999 0.0000000 2.4928999
vn 1.1799679 -2.7495003 -2.8465390
v 2.2901001 0.0000000 2.5090001
vn 2.1778598 -2.7498322 -2.1800604
v 2.3585000 0.0000000 2.5546999
vn 2.8460231 -2.7472973 -1.1794486
v 2.4043000 0.0000000 2.6231000
vn 0.0000000 -6.2831855 0.0000000
v 2.2093999 0.0000000 2.7038000
# 76 vertices, 0 vertices normals


usemtl material_0
vt 0.0000000 0.0000000
vt 0.1250000 0.0000000
vt 0.2500000 0.0000000
f 1/1/1 2/2/2 3/3/3
vt 0.3750000 0.0000000
vt 0.5000000 0.0000000
f 3/3/3 4/4/4 5/5/5
vt 0.6250000 0.0000000
vt 0.7500000 0.0000000
f 5/5/5 6/6/6 7/7/7
f 3/3/3 5/5/5 7/7/7
f 1/1/1 3/3/3 7/7/7
vt -0.1250000 0.0000000
f 8/8/8 1/1/1 7/7/7
vt 0.6250000 1.0000000
f 7/7/7 6/6/6 9/9/9
vt 0.7500000 1.0000000
f 9/9/9 10/10/10 7/7/7
vt 0.5000000 1.0000000
f 6/6/6 5/5/5 11/11/11
f 11/11/11 9/9/9 6/6/6
vt 0.3750000 1.0000000
f 5/5/5 4/4/4 12/12/12
f 12/12/12 11/11/11 5/5/5
vt 0.2500000 1.0000000
f 4/4/4 3/3/3 13/13/13
f 13/13/13 12/12/12 4/4/4
vt 0.1250000 1.0000000
f 3/3/3 2/2/2 14/14/14
f 14/14/14 13/13/13 3/3/3
vt 0.0000000 1.0000000
f 2/2/2 1/1/1 15/15/15
f 15/15/15 14/14/14 2/2/2
vt -0.1250000 1.0000000
f 1/1/1 8/8/8 16/16/16
f 16/16/16 15/15/15 1/1/1
vt 0.8750000 0.0000000
f 8/17/8 7/7/7 10/10/10
vt 0.8750000 1.0000000
f 10/10/10 16/18/16 8/17/8
f 10/10/10 9/9/9 11/11/11
f 11/11/11 12/12/12 13/13/13
f 13/13/13 14/14/14 15/15/15
f 11/11/11 13/13/13 15/15/15
f 10/10/10 11/11/11 15/15/15
f 16/18/16 10/10/10 15/15/15
vt 0.8333000 0.0000000
f 17/5/17 18/19/18 19/7/19
vt 0.9167000 0.0000000
f 17/5/17 20/20/20 18/19/18
vt -0.0833000 0.0000000
f 17/5/17 21/1/21 20/21/20
vt 0.0833000 0.0000000
f 17/5/17 22/22/22 21/1/21
vt 0.1667000 0.0000000
f 17/5/17 23/23/23 22/22/22
f 17/5/17 24/3/24 23/23/23
vt 0.3333000 0.0000000
f 17/5/17 25/24/25 24/3/24
vt 0.4167000 0.0000000
f 17/5/17 26/25/26 25/24/25
f 17/5/17 27/5/27 26/25/26
vt 0.5833000 0.0000000
f 17/5/17 28/26/28 27/5/27
vt 0.6667000 0.0000000
f 17/5/17 29/27/29 28/26/28
f 17/5/17 19/7/19 29/27/29
vt 0.8333000 1.0000000
f 19/7/19 30/28/30 31/10/31
f 19/7/19 18/19/18 30/28/30
vt 0.9167000 1.0000000
f 18/19/18 32/29/32 30/28/30
f 18/19/18 20/20/20 32/29/32
vt -0.0833000 1.0000000
f 20/21/20 33/15/33 32/30/32
f 20/21/20 21/1/21 33/15/33
vt 0.0833000 1.0000000
f 21/1/21 34/31/34 33/15/33
f 21/1/21 22/22/22 34/31/34
vt 0.1667000 1.0000000
f 22/22/22 35/32/35 34/31/34
f 22/22/22 23/23/23 35/32/35
f 23/23/23 36/13/36 35/32/35
f 23/23/23 24/3/24 36/13/36
vt 0.3333000 1.0000000
f 24/3/24 37/33/37 36/13/36
f 24/3/24 25/24/25 37/33/37
vt 0.4167000 1.0000000
f 25/24/25 38/34/38 37/33/37
f 25/24/25 26/25/26 38/34/38
f 26/25/26 39/11/39 38/34/38
f 26/25/26 27/5/27 39/11/39
vt 0.5833000 1.0000000
f 27/5/27 40/35/40 39/11/39
f 27/5/27 28/26/28 40/35/40
vt 0.6667000 1.0000000
f 28/26/28 41/36/41 40/35/40
f 28/26/28 29/27/29 41/36/41
f 29/27/29 31/10/31 41/36/41
f 29/27/29 19/7/19 31/10/31
f 42/11/42 31/10/31 30/28/30
f 42/11/42 30/28/30 32/29/32
f 42/11/42 32/30/32 33/15/33
f 42/11/42 33/15/33 34/31/34
f 42/11/42 34/31/34 35/32/35
f 42/11/42 35/32/35 36/13/36
f 42/11/42 36/13/36 37/33/37
f 42/11/42 37/33/37 38/34/38
f 42/11/42 38/34/38 39/11/39
f 42/11/42 39/11/39 40/35/40
f 42/11/42 40/35/40 41/36/41
f 42/11/42 41/36/41 31/10/31
vt 0.8125000 0.0000000
f 43/5/43 44/37/44 45/7/45
f 43/5/43 46/17/46 44/37/44
vt 0.9375000 0.0000000
f 43/5/43 47/38/47 46/17/46
vt -0.0625000 0.0000000
f 43/5/43 48/1/48 47/39/47
vt 0.0625000 0.0000000
f 43/5/43 49/40/49 48/1/48
f 43/5/43 50/2/50 49/40/49
vt 0.1875000 0.0000000
f 43/5/43 51/41/51 50/2/50
f 43/5/43 52/3/52 51/41/51
vt 0.3125000 0.0000000
f 43/5/43 53/42/53 52/3/52
f 43/5/43 54/4/54 53/42/53
vt 0.4375000 0.0000000
f 43/5/43 55/43/55 54/4/54
f 43/5/43 56/5/56 55/43/55
vt 0.5625000 0.0000000
f 43/5/43 57/44/57 56/5/56
f 43/5/43 58/6/58 57/44/57
vt 0.6875000 0.0000000
f 43/5/43 59/45/59 58/6/58
f 43/5/43 45/7/45 59/45/59
vt 0.8125000 1.0000000
f 45/7/45 60/46/60 61/10/61
f 45/7/45 44/37/44 60/46/60
f 44/37/44 62/18/62 60/46/60
f 44/37/44 46/17/46 62/18/62
vt 0.9375000 1.0000000
f 46/17/46 63/47/63 62/18/62
f 46/17/46 47/38/47 63/47/63
vt -0.0625000 1.0000000
f 47/39/47 64/15/64 63/48/63
f 47/39/47 48/1/48 64/15/64
vt 0.0625000 1.0000000
f 48/1/48 65/49/65 64/15/64
f 48/1/48 49/40/49 65/49/65
f 49/40/49 66/14/66 65/49/65
f 49/40/49 50/2/50 66/14/66
vt 0.1875000 1.0000000
f 50/2/50 67/50/67 66/14/66
f 50/2/50 51/41/51 67/50/67
f 51/41/51 68/13/68 67/50/67
f 51/41/51 52/3/52 68/13/68
vt 0.3125000 1.0000000
f 52/3/52 69/51/69 68/13/68
f 52/3/52 53/42/53 69/51/69
f 53/42/53 70/12/70 69/51/69
f 53/42/53 54/4/54 70/12/70
vt 0.4375000 1.0000000
f 54/4/54 71/52/71 70/12/70
f 54/4/54 55/43/55 71/52/71
f 55/43/55 72/11/72 71/52/71
f 55/43/55 56/5/56 72/11/72
vt 0.5625000 1.0000000
f 56/5/56 73/53/73 72/11/72
f 56/5/56 57/44/57 73/53/73
f 57/44/57 74/9/74 73/53/73
f 57/44/57 58/6/58 74/9/74
vt 0.6875000 1.0000000
f 58/6/58 75/54/75 74/9/74
f 58/6/58 59/45/59 75/54/75
f 59/45/59 61/10/61 75/54/75
f 59/45/59 45/7/45 61/10/61
f 76/11/76 61/10/61 60/46/60
f 76/11/76 60/46/60 62/18/62
f 76/11/76 62/18/62 63/47/63
f 76/11/76 63/48/63 64/15/64
f 76/11/76 64/15/64 65/49/65
f 76/11/76 65/49/65 66/14/66
f 76/11/76 66/14/66 67/50/67
f 76/11/76 67/50/67 68/13/68
f 76/11/76 68/13/68 69/51/69
f 76/11/76 69/51/69 70/12/70
f 76/11/76 70/12/70 71/52/71
f 76/11/76 71/52/71 72/11/72
f 76/11/76 72/11/72 73/53/73
f 76/11/76 73/53/73 74/9/74
f 76/11/76 74/9/74 75/54/75
f 76/11/76 75/54/75 61/10/61
# 140 faces, 54 coords texture

# End of File
