####
#
# OBJ File Generated by Meshlab
#
####
# Object table_chair_2.obj
#
# Vertices: 128
# Faces: 236
#
####
mtllib ./table_chair_2.obj.mtl

vn 2.8881791 2.9449379 -1.1970427
v 2.5991001 0.6918000 2.5423999
vn 2.5996742 2.9459951 -1.7370086
v 2.5601001 0.6918000 2.4695001
vn 2.2117946 2.9454055 -2.2097297
v 2.5077000 0.6918000 2.4056001
vn 1.7373523 2.9444900 -2.5991664
v 2.4438000 0.6918000 2.3531001
vn 1.1962519 2.9455075 -2.8886013
v 2.3708000 0.6918000 2.3141000
vn 0.6099238 2.9451134 -3.0663743
v 2.2916999 0.6918000 2.2901001
vn -0.0000000 2.9453816 -3.1264863
v 2.2093999 0.6918000 2.2820001
vn -0.6099250 2.9451125 -3.0663736
v 2.1271000 0.6918000 2.2901001
vn -1.1970421 2.9449394 -2.8881798
v 2.0480001 0.6918000 2.3141000
vn -1.7381407 2.9450591 -2.5987444
v 1.9751000 0.6918000 2.3531001
vn -2.2108638 2.9463398 -2.2108638
v 1.9112000 0.6918000 2.4056001
vn -2.5987437 2.9450603 -1.7381428
v 1.8587000 0.6918000 2.4695001
vn -2.8881783 2.9449394 -1.1970446
v 1.8197000 0.6918000 2.5423999
vn -3.0663743 2.9451108 -0.6099237
v 1.7957000 0.6918000 2.6215000
vn -3.1264868 2.9453828 0.0000000
v 1.7876000 0.6918000 2.7038000
vn -3.0663738 2.9451108 0.6099236
v 1.7957000 0.6918000 2.7860999
vn -2.8886013 2.9455092 1.1962543
v 1.8197000 0.6918000 2.8652000
vn -2.5991659 2.9444900 1.7373519
v 1.8587000 0.6918000 2.9382000
vn -2.2097297 2.9454048 2.2117949
v 1.9112000 0.6918000 3.0021000
vn -1.7370033 2.9459910 2.5996776
v 1.9751000 0.6918000 3.0545001
vn -1.1970425 2.9449449 2.8881803
v 2.0480001 0.6918000 3.0934999
vn -0.6099292 2.9451098 3.0663729
v 2.1271000 0.6918000 3.1175001
vn 0.0000000 2.9453816 3.1264863
v 2.2093999 0.6918000 3.1256001
vn 0.6099279 2.9451108 3.0663729
v 2.2916999 0.6918000 3.1175001
vn 1.1962528 2.9455132 2.8886025
v 2.3708000 0.6918000 3.0934999
vn 1.7362144 2.9454215 2.6000988
v 2.4438000 0.6918000 3.0545001
vn 2.2106607 2.9444714 2.2106605
v 2.5077000 0.6918000 3.0021000
vn 2.6000972 2.9454246 1.7362182
v 2.5601001 0.6918000 2.9382000
vn 2.8886013 2.9455075 1.1962519
v 2.5991001 0.6918000 2.8652000
vn 3.0663743 2.9451134 0.6099238
v 2.6231000 0.6918000 2.7860999
vn 3.1264863 2.9453821 -0.0000000
v 2.6312001 0.6918000 2.7038000
vn 3.0663741 2.9451134 -0.6099238
v 2.6231000 0.6918000 2.6215000
vn 3.9928799 -2.7988648 0.7943740
v 2.6231000 0.6707000 2.7860999
vn 4.0714431 -2.7990527 0.0000025
v 2.6312001 0.6707000 2.7038000
vn 3.7610295 -2.7993879 1.5575901
v 2.5991001 0.6707000 2.8652000
vn 3.3848243 -2.7994642 2.2605522
v 2.5601001 0.6707000 2.9382000
vn 2.8775268 -2.7987976 2.8772120
v 2.5077000 0.6707000 3.0021000
vn 2.2605832 -2.7993705 3.3851626
v 2.4438000 0.6707000 3.0545001
vn 1.5577588 -2.7993231 3.7612092
v 2.3708000 0.6707000 3.0934999
vn 0.7942629 -2.7988131 3.9930646
v 2.2916999 0.6707000 3.1175001
vn -0.0000025 -2.7990527 4.0714431
v 2.2093999 0.6707000 3.1256001
vn -0.7943799 -2.7988613 3.9928775
v 2.1271000 0.6707000 3.1175001
vn -1.5584840 -2.7988331 3.7605255
v 2.0480001 0.6707000 3.0934999
vn -2.2620094 -2.7997401 3.3850780
v 1.9751000 0.6707000 3.0545001
vn -2.8768241 -2.7994101 2.8795788
v 1.9112000 0.6707000 3.0021000
vn -3.3837605 -2.7985218 2.2619088
v 1.8587000 0.6707000 2.9382000
vn -3.7610290 -2.7994168 1.5573565
v 1.8197000 0.6707000 2.8652000
vn -3.9917572 -2.7992370 0.7939807
v 1.7957000 0.6707000 2.7860999
vn -4.0700803 -2.7994878 -0.0000024
v 1.7876000 0.6707000 2.7038000
vn -3.9919393 -2.7991898 -0.7938588
v 1.7957000 0.6707000 2.6215000
vn -3.7605193 -2.7988284 -1.5584840
v 1.8197000 0.6707000 2.5423999
vn -3.3839726 -2.7988255 -2.2632852
v 1.8587000 0.6707000 2.4695001
vn -2.8791983 -2.7999549 -2.8791804
v 1.9112000 0.6707000 2.4056001
vn -2.2631905 -2.7988405 -3.3839722
v 1.9751000 0.6707000 2.3531001
vn -1.5583122 -2.7988973 -3.7603495
v 2.0480001 0.6707000 2.3141000
vn -0.7939830 -2.7992387 -3.9917581
v 2.1271000 0.6707000 2.2901001
vn 0.0000025 -2.7994847 -4.0700808
v 2.2093999 0.6707000 2.2820001
vn 0.7938597 -2.7991922 -3.9919417
v 2.2916999 0.6707000 2.2901001
vn 1.5575901 -2.7993879 -3.7610295
v 2.3708000 0.6707000 2.3141000
vn 2.2618191 -2.7985466 -3.3837211
v 2.4438000 0.6707000 2.3531001
vn 2.8795660 -2.7993436 -2.8771448
v 2.5077000 0.6707000 2.4056001
vn 3.3853722 -2.7996931 -2.2618713
v 2.5601001 0.6707000 2.4695001
vn 3.7605224 -2.7987988 -1.5587158
v 2.5991001 0.6707000 2.5423999
vn 3.9930668 -2.7988155 -0.7942578
v 2.6231000 0.6707000 2.6215000
vn 1.0435359 -6.0963717 0.2079539
v 2.5618000 0.6496000 2.7739000
vn 1.0638107 -6.0964723 0.0000036
v 2.5687001 0.6496000 2.7038000
vn 0.9820981 -6.0967197 0.4071041
v 2.5413001 0.6496000 2.8413000
vn 0.8837290 -6.0967503 0.5907829
v 2.5081000 0.6496000 2.9033999
vn 0.7508178 -6.0973206 0.7503501
v 2.4633999 0.6496000 2.9577999
vn 0.5903983 -6.0968800 0.8835741
v 2.4089999 0.6496000 3.0025001
vn 0.4071243 -6.0968170 0.9818123
v 2.3469000 0.6496000 3.0357001
vn 0.2076998 -6.0964413 1.0433995
v 2.2795000 0.6496000 3.0562000
vn -0.0000038 -6.0964718 1.0638108
v 2.2093999 0.6496000 3.0631001
vn -0.2079530 -6.0963726 1.0435351
v 2.1393001 0.6496000 3.0562000
vn -0.4071066 -6.0967178 0.9821012
v 2.0718999 0.6496000 3.0357001
vn -0.5914017 -6.0965023 0.8841479
v 2.0098000 0.6496000 3.0025001
vn -0.7511622 -6.0969329 0.7515198
v 1.9554000 0.6496000 2.9577999
vn -0.8836100 -6.0967855 0.5907959
v 1.9107000 0.6496000 2.9033999
vn -0.9824757 -6.0966554 0.4065686
v 1.8775001 0.6496000 2.8413000
vn -1.0419595 -6.0970039 0.2071129
v 1.8571000 0.6496000 2.7739000
vn -1.0622947 -6.0970197 -0.0000035
v 1.8502001 0.6496000 2.7038000
vn -1.0418293 -6.0970712 -0.2068522
v 1.8571000 0.6496000 2.6336999
vn -0.9822558 -6.0966959 -0.4068285
v 1.8775001 0.6496000 2.5662999
vn -0.8841479 -6.0965028 -0.5914018
v 1.9107000 0.6496000 2.5042000
vn -0.7519367 -6.0966396 -0.7519107
v 1.9554000 0.6496000 2.4498000
vn -0.5913405 -6.0964804 -0.8842580
v 2.0098000 0.6496000 2.4051001
vn -0.4068035 -6.0965986 -0.9825450
v 2.0718999 0.6496000 2.3719001
vn -0.2071134 -6.0970030 -1.0419598
v 2.1393001 0.6496000 2.3515000
vn 0.0000035 -6.0970192 -1.0622976
v 2.2093999 0.6496000 2.3446000
vn 0.2068533 -6.0970707 -1.0418305
v 2.2795000 0.6496000 2.3515000
vn 0.4068292 -6.0966964 -0.9822564
v 2.3469000 0.6496000 2.3719001
vn 0.5907813 -6.0967503 -0.8837292
v 2.4089999 0.6496000 2.4051001
vn 0.7510961 -6.0970283 -0.7512339
v 2.4633999 0.6496000 2.4498000
vn 0.8842238 -6.0965753 -0.5909425
v 2.5081000 0.6496000 2.5042000
vn 0.9818773 -6.0967603 -0.4073588
v 2.5413001 0.6496000 2.5662999
vn 1.0433989 -6.0964413 -0.2076987
v 2.5618000 0.6496000 2.6336999
vn -1.5738196 -1.4145504 -1.4599948
v 1.9254000 0.0044000 3.6796999
vn -1.5485469 1.7214016 -1.6813420
v 1.9949000 0.6297000 3.6717000
vn 1.5463293 1.3611169 -1.4476883
v 2.0235000 0.6297000 3.6717000
vn 1.5715290 -1.7867377 -1.6936443
v 1.9462000 0.0044000 3.6796999
vn -1.5738198 -1.4145504 1.4599936
v 1.9254000 0.0044000 3.7104001
vn -1.5485460 1.7214015 1.6813413
v 1.9949000 0.6297000 3.7184000
vn 1.5715302 -1.7867378 1.6936425
v 1.9462000 0.0044000 3.7104001
vn 1.5463268 1.3611172 1.4476912
v 2.0235000 0.6297000 3.7184000
vn 1.5503210 1.7366114 -1.6878455
v 2.3951001 0.6297000 3.6710999
vn 1.5697443 -1.4003893 -1.4535955
v 2.4691999 0.0000000 3.6773000
vn -1.5662149 -1.7999994 -1.7055042
v 2.4482000 0.0000000 3.6773000
vn -1.5468782 1.3468698 -1.4359353
v 2.3627999 0.6297000 3.6710999
vn 1.5503225 1.7366114 1.6878450
v 2.3951001 0.6297000 3.7189000
vn 1.5697438 -1.4003894 1.4535965
v 2.4691999 0.0000000 3.7126999
vn -1.5468791 1.3468698 1.4359368
v 2.3627999 0.6297000 3.7189000
vn -1.5662136 -1.7999992 1.7055051
v 2.4482000 0.0000000 3.7126999
vn -1.5878248 -1.3262018 -1.3761501
v 1.9331000 0.0000000 3.2893000
vn -1.4952730 1.7787324 -1.7618181
v 1.9852000 0.2662000 3.2765000
vn 1.4753916 1.1245565 -1.3155835
v 2.0216000 0.2662000 3.2765000
vn 1.5654237 -2.0647755 -1.8223841
v 1.9525000 0.0000000 3.2893000
vn -1.5878247 -1.3262017 1.3761493
v 1.9331000 0.0000000 3.3183000
vn -1.4952732 1.7787325 1.7618188
v 1.9852000 0.2662000 3.3311000
vn 1.5654238 -2.0647757 1.8223845
v 1.9525000 0.0000000 3.3183000
vn 1.4753910 1.1245568 1.3155831
v 2.0216000 0.2662000 3.3311000
vn -1.5657060 -2.0529735 -1.8176435
v 2.4442000 0.0000000 3.2888000
vn -1.4789656 1.1336453 -1.3206009
v 2.3764999 0.2662000 3.2765000
vn 1.5001818 1.7660420 -1.7507735
v 2.4129000 0.2662000 3.2765000
vn 1.5895034 -1.3423223 -1.3874713
v 2.4619000 0.0000000 3.2888000
vn -1.5657059 -2.0529735 1.8176435
v 2.4442000 0.0000000 3.3188000
vn -1.4789661 1.1336452 1.3206019
v 2.3764999 0.2662000 3.3311000
vn 1.5895035 -1.3423223 1.3874723
v 2.4619000 0.0000000 3.3188000
vn 1.5001811 1.7660420 1.7507731
v 2.4129000 0.2662000 3.3311000
# 128 vertices, 0 vertices normals


usemtl material_0
vt -1.4555000 -0.3100000
vt -1.2599000 -0.6760000
vt -0.9967000 -0.9967000
f 1/1/1 2/2/2 3/3/3
vt -0.6760000 -1.2599000
vt -0.3100000 -1.4555000
f 3/3/3 4/4/4 5/5/5
vt 0.0871000 -1.5760000
vt 0.5000000 -1.6167001
f 5/5/5 6/6/6 7/7/7
f 3/3/3 5/5/5 7/7/7
vt 0.9129000 -1.5760000
vt 1.3099999 -1.4555000
f 7/7/7 8/8/8 9/9/9
vt 1.6760000 -1.2599000
vt 1.9967000 -0.9967000
f 9/9/9 10/10/10 11/11/11
f 7/7/7 9/9/9 11/11/11
vt 2.2599001 -0.6760000
vt 2.4554999 -0.3100000
f 11/11/11 12/12/12 13/13/13
vt 2.5760000 0.0871000
vt 2.6166999 0.5000000
f 13/13/13 14/14/14 15/15/15
f 11/11/11 13/13/13 15/15/15
f 7/7/7 11/11/11 15/15/15
vt 2.5760000 0.9129000
vt 2.4554999 1.3099999
f 15/15/15 16/16/16 17/17/17
vt 2.2599001 1.6760000
vt 1.9967000 1.9967000
f 17/17/17 18/18/18 19/19/19
f 15/15/15 17/17/17 19/19/19
vt 1.6760000 2.2599001
vt 1.3099999 2.4554999
f 19/19/19 20/20/20 21/21/21
vt 0.9129000 2.5760000
vt 0.5000000 2.6166999
f 21/21/21 22/22/22 23/23/23
f 19/19/19 21/21/21 23/23/23
f 15/15/15 19/19/19 23/23/23
vt 0.0871000 2.5760000
vt -0.3100000 2.4554999
f 23/23/23 24/24/24 25/25/25
vt -0.6760000 2.2599001
vt -0.9967000 1.9967000
f 25/25/25 26/26/26 27/27/27
f 23/23/23 25/25/25 27/27/27
vt -1.2599000 1.6760000
vt -1.4555000 1.3099999
f 27/27/27 28/28/28 29/29/29
vt -1.5760000 0.9129000
vt -1.6167001 0.5000000
f 29/29/29 30/30/30 31/31/31
f 27/27/27 29/29/29 31/31/31
f 23/23/23 27/27/27 31/31/31
f 15/15/15 23/23/23 31/31/31
f 7/7/7 15/15/15 31/31/31
f 3/3/3 7/7/7 31/31/31
f 1/1/1 3/3/3 31/31/31
vt -1.5760000 0.0871000
f 32/32/32 1/1/1 31/31/31
vt 0.5000000 0.3546000
vt 0.9129000 0.3546000
vt 0.9129000 0.4605000
f 31/33/31 30/34/30 33/35/33
vt 0.5000000 0.4605000
f 33/35/33 34/36/34 31/33/31
vt 1.3099999 0.3546000
vt 1.3099999 0.4605000
f 30/34/30 29/37/29 35/38/35
f 35/38/35 33/35/33 30/34/30
vt 1.6760000 0.3546000
vt 1.6760000 0.4605000
f 29/37/29 28/39/28 36/40/36
f 36/40/36 35/38/35 29/37/29
vt 1.9967000 0.3546000
vt 1.9967000 0.4605000
f 28/39/28 27/41/27 37/42/37
f 37/42/37 36/40/36 28/39/28
vt -0.9967000 0.3546000
vt -0.6760000 0.3546000
vt -0.6760000 0.4605000
f 27/43/27 26/44/26 38/45/38
vt -0.9967000 0.4605000
f 38/45/38 37/46/37 27/43/27
vt -0.3100000 0.3546000
vt -0.3100000 0.4605000
f 26/44/26 25/47/25 39/48/39
f 39/48/39 38/45/38 26/44/26
vt 0.0871000 0.3546000
vt 0.0871000 0.4605000
f 25/47/25 24/49/24 40/50/40
f 40/50/40 39/48/39 25/47/25
f 24/49/24 23/33/23 41/36/41
f 41/36/41 40/50/40 24/49/24
f 23/33/23 22/34/22 42/35/42
f 42/35/42 41/36/41 23/33/23
f 22/34/22 21/37/21 43/38/43
f 43/38/43 42/35/42 22/34/22
f 21/37/21 20/39/20 44/40/44
f 44/40/44 43/38/43 21/37/21
f 20/39/20 19/41/19 45/42/45
f 45/42/45 44/40/44 20/39/20
f 19/43/19 18/44/18 46/45/46
f 46/45/46 45/46/45 19/43/19
f 18/44/18 17/47/17 47/48/47
f 47/48/47 46/45/46 18/44/18
f 17/47/17 16/49/16 48/50/48
f 48/50/48 47/48/47 17/47/17
f 16/49/16 15/33/15 49/36/49
f 49/36/49 48/50/48 16/49/16
f 15/33/15 14/34/14 50/35/50
f 50/35/50 49/36/49 15/33/15
f 14/34/14 13/37/13 51/38/51
f 51/38/51 50/35/50 14/34/14
f 13/37/13 12/39/12 52/40/52
f 52/40/52 51/38/51 13/37/13
f 12/39/12 11/41/11 53/42/53
f 53/42/53 52/40/52 12/39/12
f 11/43/11 10/44/10 54/45/54
f 54/45/54 53/46/53 11/43/11
f 10/44/10 9/47/9 55/48/55
f 55/48/55 54/45/54 10/44/10
f 9/47/9 8/49/8 56/50/56
f 56/50/56 55/48/55 9/47/9
f 8/49/8 7/33/7 57/36/57
f 57/36/57 56/50/56 8/49/8
f 7/33/7 6/34/6 58/35/58
f 58/35/58 57/36/57 7/33/7
f 6/34/6 5/37/5 59/38/59
f 59/38/59 58/35/58 6/34/6
f 5/37/5 4/39/4 60/40/60
f 60/40/60 59/38/59 5/37/5
f 4/39/4 3/41/3 61/42/61
f 61/42/61 60/40/60 4/39/4
f 3/43/3 2/44/2 62/45/62
f 62/45/62 61/46/61 3/43/3
f 2/44/2 1/47/1 63/48/63
f 63/48/63 62/45/62 2/44/2
f 1/47/1 32/49/32 64/50/64
f 64/50/64 63/48/63 1/47/1
f 32/49/32 31/33/31 34/36/34
f 34/36/34 64/50/64 32/49/32
vt 2.2681000 0.8517000
f 34/15/34 33/16/33 65/51/65
vt 2.3027000 0.5000000
f 65/51/65 66/52/66 34/15/34
vt 2.1654999 1.1899000
f 33/16/33 35/17/35 67/53/67
f 67/53/67 65/51/65 33/16/33
vt 1.9989001 1.5015000
f 35/17/35 36/18/36 68/54/68
f 68/54/68 67/53/67 35/17/35
vt 1.7747000 1.7747000
f 36/18/36 37/19/37 69/55/69
f 69/55/69 68/54/68 36/18/36
vt 1.5015000 1.9989001
f 37/19/37 38/20/38 70/56/70
f 70/56/70 69/55/69 37/19/37
vt 1.1899000 2.1654999
f 38/20/38 39/21/39 71/57/71
f 71/57/71 70/56/70 38/20/38
vt 0.8517000 2.2681000
f 39/21/39 40/22/40 72/58/72
f 72/58/72 71/57/71 39/21/39
vt 0.5000000 2.3027000
f 40/22/40 41/23/41 73/59/73
f 73/59/73 72/58/72 40/22/40
vt 0.1483000 2.2681000
f 41/23/41 42/24/42 74/60/74
f 74/60/74 73/59/73 41/23/41
vt -0.1899000 2.1654999
f 42/24/42 43/25/43 75/61/75
f 75/61/75 74/60/74 42/24/42
vt -0.5015000 1.9989001
f 43/25/43 44/26/44 76/62/76
f 76/62/76 75/61/75 43/25/43
vt -0.7747000 1.7747000
f 44/26/44 45/27/45 77/63/77
f 77/63/77 76/62/76 44/26/44
vt -0.9989000 1.5015000
f 45/27/45 46/28/46 78/64/78
f 78/64/78 77/63/77 45/27/45
vt -1.1655000 1.1899000
f 46/28/46 47/29/47 79/65/79
f 79/65/79 78/64/78 46/28/46
vt -1.2681000 0.8517000
f 47/29/47 48/30/48 80/66/80
f 80/66/80 79/65/79 47/29/47
vt -1.3027000 0.5000000
f 48/30/48 49/31/49 81/67/81
f 81/67/81 80/66/80 48/30/48
vt -1.2681000 0.1483000
f 49/31/49 50/32/50 82/68/82
f 82/68/82 81/67/81 49/31/49
vt -1.1655000 -0.1899000
f 50/32/50 51/1/51 83/69/83
f 83/69/83 82/68/82 50/32/50
vt -0.9989000 -0.5015000
f 51/1/51 52/2/52 84/70/84
f 84/70/84 83/69/83 51/1/51
vt -0.7747000 -0.7747000
f 52/2/52 53/3/53 85/71/85
f 85/71/85 84/70/84 52/2/52
vt -0.5015000 -0.9989000
f 53/3/53 54/4/54 86/72/86
f 86/72/86 85/71/85 53/3/53
vt -0.1899000 -1.1655000
f 54/4/54 55/5/55 87/73/87
f 87/73/87 86/72/86 54/4/54
vt 0.1483000 -1.2681000
f 55/5/55 56/6/56 88/74/88
f 88/74/88 87/73/87 55/5/55
vt 0.5000000 -1.3027000
f 56/6/56 57/7/57 89/75/89
f 89/75/89 88/74/88 56/6/56
vt 0.8517000 -1.2681000
f 57/7/57 58/8/58 90/76/90
f 90/76/90 89/75/89 57/7/57
vt 1.1899000 -1.1655000
f 58/8/58 59/9/59 91/77/91
f 91/77/91 90/76/90 58/8/58
vt 1.5015000 -0.9989000
f 59/9/59 60/10/60 92/78/92
f 92/78/92 91/77/91 59/9/59
vt 1.7747000 -0.7747000
f 60/10/60 61/11/61 93/79/93
f 93/79/93 92/78/92 60/10/60
vt 1.9989001 -0.5015000
f 61/11/61 62/12/62 94/80/94
f 94/80/94 93/79/93 61/11/61
vt 2.1654999 -0.1899000
f 62/12/62 63/13/63 95/81/95
f 95/81/95 94/80/94 62/12/62
vt 2.2681000 0.1483000
f 63/13/63 64/14/64 96/82/96
f 96/82/96 95/81/95 63/13/63
f 64/14/64 34/15/34 66/52/66
f 66/52/66 96/82/96 64/14/64
f 66/52/66 65/51/65 67/53/67
f 67/53/67 68/54/68 69/55/69
f 69/55/69 70/56/70 71/57/71
f 67/53/67 69/55/69 71/57/71
f 71/57/71 72/58/72 73/59/73
f 73/59/73 74/60/74 75/61/75
f 71/57/71 73/59/73 75/61/75
f 75/61/75 76/62/76 77/63/77
f 77/63/77 78/64/78 79/65/79
f 75/61/75 77/63/77 79/65/79
f 71/57/71 75/61/75 79/65/79
f 79/65/79 80/66/80 81/67/81
f 81/67/81 82/68/82 83/69/83
f 79/65/79 81/67/81 83/69/83
f 83/69/83 84/70/84 85/71/85
f 85/71/85 86/72/86 87/73/87
f 83/69/83 85/71/85 87/73/87
f 79/65/79 83/69/83 87/73/87
f 87/73/87 88/74/88 89/75/89
f 89/75/89 90/76/90 91/77/91
f 87/73/87 89/75/89 91/77/91
f 91/77/91 92/78/92 93/79/93
f 93/79/93 94/80/94 95/81/95
f 91/77/91 93/79/93 95/81/95
f 87/73/87 91/77/91 95/81/95
f 79/65/79 87/73/87 95/81/95
f 71/57/71 79/65/79 95/81/95
f 67/53/67 71/57/71 95/81/95
f 66/52/66 67/53/67 95/81/95
f 96/82/96 66/52/66 95/81/95

usemtl material_1
vt -0.5584000 -0.3700000
vt 1.3605000 -0.1492000
vt 1.3605000 -0.0583000
f 97/83/97 98/84/98 99/85/99
vt -0.5584000 -0.3041000
f 99/85/99 100/86/100 97/83/97
vt 1.5584000 1.3162000
vt -0.3605000 1.3415999
vt -0.3605000 1.1931000
f 101/87/101 102/88/102 98/89/98
vt 1.5584000 1.2185000
f 98/89/98 97/90/97 101/87/101
vt 1.5584000 -0.3041000
vt -0.3605000 -0.0583000
vt -0.3605000 -0.1492000
f 103/91/103 104/92/104 102/93/102
vt 1.5584000 -0.3700000
f 102/93/102 101/94/101 103/91/103
vt -0.5584000 1.2185000
vt 1.3605000 1.1931000
vt 1.3605000 1.3415999
f 100/95/100 99/96/99 104/97/104
vt -0.5584000 1.3162000
f 104/97/104 103/98/103 100/95/100
vt 1.3415999 -0.1492000
vt 1.3415999 -0.0583000
vt 1.1931000 -0.0583000
f 102/99/102 104/100/104 99/101/99
vt 1.1931000 -0.1492000
f 99/101/99 98/102/98 102/99/102
vt -0.2185000 -0.3041000
vt -0.3162000 -0.3041000
vt -0.3162000 -0.3700000
f 100/103/100 103/104/103 101/105/101
vt -0.2185000 -0.3700000
f 101/105/101 97/106/97 100/103/100
vt 1.3605000 1.1232001
vt -0.5720000 1.3589000
vt -0.5720000 1.2922000
f 105/107/105 106/108/106 107/109/107
vt 1.3605000 1.0207000
f 107/109/107 108/110/108 105/107/105
vt 1.3605000 1.3433000
vt -0.5720000 1.3237000
vt -0.5720000 1.2110000
f 109/111/109 110/112/110 106/113/106
vt 1.3605000 1.1914999
f 106/113/106 105/114/105 109/111/109
vt -0.3605000 1.0207000
vt 1.5720000 1.2922000
vt 1.5720000 1.3589000
f 111/115/111 112/116/112 110/117/110
vt -0.3605000 1.1232001
f 110/117/110 109/118/109 111/115/111
vt -0.3605000 1.1914999
vt 1.5720000 1.2110000
vt 1.5720000 1.3237000
f 108/119/108 107/120/107 112/121/112
vt -0.3605000 1.3433000
f 112/121/112 111/122/111 108/119/108
vt -0.3237000 1.3589000
vt -0.3237000 1.2922000
vt -0.2110000 1.2922000
f 110/123/110 112/124/112 107/125/107
vt -0.2110000 1.3589000
f 107/125/107 106/126/106 110/123/110
vt 1.1914999 1.0207000
vt 1.3433000 1.0207000
vt 1.3433000 1.1232001
f 108/127/108 111/128/111 109/129/109
vt 1.1914999 1.1232001
f 109/129/109 105/130/105 108/127/108
vt -0.5720000 -0.3455000
vt 0.2448000 -0.1799000
vt 0.2448000 -0.0641000
f 113/131/113 114/132/114 115/133/115
vt -0.5720000 -0.2840000
f 115/133/115 116/134/116 113/131/113
vt 1.5720000 0.0695000
vt 0.7552000 0.1102000
vt 0.7552000 -0.0635000
f 117/135/117 118/136/118 114/137/114
vt 1.5720000 -0.0227000
f 114/137/114 113/138/113 117/135/117
vt 1.5720000 -0.2840000
vt 0.7552000 -0.0641000
vt 0.7552000 -0.1799000
f 119/139/119 120/140/120 118/141/118
vt 1.5720000 -0.3455000
f 118/141/118 117/142/117 119/139/119
vt -0.5720000 -0.0227000
vt 0.2448000 -0.0635000
vt 0.2448000 0.1102000
f 116/143/116 115/144/115 120/145/120
vt -0.5720000 0.0695000
f 120/145/120 119/146/119 116/143/116
vt 0.1102000 -0.1799000
vt 0.1102000 -0.0641000
vt -0.0635000 -0.0641000
f 118/147/118 120/148/120 115/149/115
vt -0.0635000 -0.1799000
f 115/149/115 114/150/114 118/147/118
vt 1.0227000 -0.2840000
vt 0.9305000 -0.2840000
vt 0.9305000 -0.3455000
f 116/151/116 119/152/119 117/153/117
vt 1.0227000 -0.3455000
f 117/153/117 113/154/113 116/151/116
vt -0.5720000 1.2794000
vt 0.2448000 1.0641000
vt 0.2448000 1.1799001
f 121/155/121 122/156/122 123/157/123
vt -0.5720000 1.3357000
f 123/157/123 124/158/124 121/155/121
vt 1.5720000 0.0712000
vt 0.7552000 -0.0634000
f 125/159/125 126/136/126 122/160/122
vt 1.5720000 -0.0244000
f 122/160/122 121/161/121 125/159/125
vt 1.5720000 1.3357000
vt 0.7552000 1.1799001
vt 0.7552000 1.0641000
f 127/162/127 128/163/128 126/164/126
vt 1.5720000 1.2794000
f 126/164/126 125/165/125 127/162/127
vt -0.5720000 -0.0244000
vt 0.2448000 -0.0634000
f 124/166/124 123/167/123 128/145/128
vt -0.5720000 0.0712000
f 128/145/128 127/168/127 124/166/124
vt 0.1102000 1.0641000
vt 0.1102000 1.1799001
vt -0.0634000 1.1799001
f 126/169/126 128/170/128 123/171/123
vt -0.0634000 1.0641000
f 123/171/123 122/172/122 126/169/126
vt 1.0244000 1.3357000
vt 0.9288000 1.3357000
vt 0.9288000 1.2794000
f 124/173/124 127/174/127 125/175/125
vt 1.0244000 1.2794000
f 125/175/125 121/176/121 124/173/124
# 236 faces, 176 coords texture

# End of File
