####
#
# OBJ File Generated by Meshlab
#
####
# Object table_foot.obj
#
# Vertices: 76
# Faces: 140
#
####
mtllib ./table_foot.obj.mtl

vn 0.0000000 -2.3526797 2.9003358
v -1.2918000 0.0759000 2.7037001
vn -2.0552783 -2.3573120 2.0503566
v -1.3127000 0.0759000 2.6949999
vn -2.9042380 -2.3591676 0.0024591
v -1.3213000 0.0759000 2.6742001
vn -2.0562937 -2.3556190 -2.0478988
v -1.3127000 0.0759000 2.6533000
vn -0.0000000 -2.3526795 -2.9003358
v -1.2918000 0.0759000 2.6445999
vn 2.0562925 -2.3556190 -2.0478983
v -1.2709000 0.0759000 2.6533000
vn 2.9042377 -2.3591676 0.0024578
v -1.2623000 0.0759000 2.6742001
vn 2.0552802 -2.3573120 2.0503573
v -1.2709000 0.0759000 2.6949999
vn 2.0562940 2.3556190 -2.0478988
v -1.2709000 0.6496000 2.6533000
vn 2.9042380 2.3591676 0.0024591
v -1.2623000 0.6496000 2.6742001
vn 0.0000000 2.3526795 -2.9003358
v -1.2918000 0.6496000 2.6445999
vn -2.0562923 2.3556190 -2.0478983
v -1.3127000 0.6496000 2.6533000
vn -2.9042377 2.3591676 0.0024578
v -1.3213000 0.6496000 2.6742001
vn -2.0552802 2.3573120 2.0503573
v -1.3127000 0.6496000 2.6949999
vn 0.0000000 2.3526797 2.9003358
v -1.2918000 0.6496000 2.7037001
vn 2.0552783 2.3573120 2.0503569
v -1.2709000 0.6496000 2.6949999
vn 0.0000000 6.2831860 0.0000000
v -1.2918000 0.0759000 2.6742001
vn 2.6278181 2.6184247 1.5179262
v -1.2187001 0.0759000 2.7163000
vn 3.0344367 2.6177266 0.0009016
v -1.2074000 0.0759000 2.6742001
vn 1.5170258 2.6178312 2.6280596
v -1.2496001 0.0759000 2.7472000
vn 0.0000000 2.6183193 3.0346780
v -1.2918000 0.0759000 2.7585001
vn -1.5170258 2.6178312 2.6280599
v -1.3340000 0.0759000 2.7472000
vn -2.6278193 2.6184220 1.5179223
v -1.3649000 0.0759000 2.7163000
vn -3.0344388 2.6177318 0.0009016
v -1.3762000 0.0759000 2.6742001
vn -2.6280608 2.6178279 -1.5170207
v -1.3649000 0.0759000 2.6320000
vn -1.5170258 2.6178312 -2.6280596
v -1.3340000 0.0759000 2.6011000
vn -0.0000000 2.6183193 -3.0346780
v -1.2918000 0.0759000 2.5897999
vn 1.5170258 2.6178312 -2.6280599
v -1.2496001 0.0759000 2.6011000
vn 2.6280599 2.6178303 -1.5170248
v -1.2187001 0.0759000 2.6320000
vn 2.6278183 -2.6184247 1.5179263
v -1.2187001 0.0422000 2.7163000
vn 3.0344365 -2.6177266 0.0009016
v -1.2074000 0.0422000 2.6742001
vn 1.5170257 -2.6178312 2.6280596
v -1.2496001 0.0422000 2.7472000
vn -0.0000000 -2.6183193 3.0346777
v -1.2918000 0.0422000 2.7585001
vn -1.5170258 -2.6178312 2.6280594
v -1.3340000 0.0422000 2.7472000
vn -2.6278193 -2.6184220 1.5179222
v -1.3649000 0.0422000 2.7163000
vn -3.0344386 -2.6177318 0.0009016
v -1.3762000 0.0422000 2.6742001
vn -2.6280608 -2.6178279 -1.5170207
v -1.3649000 0.0422000 2.6320000
vn -1.5170257 -2.6178312 -2.6280596
v -1.3340000 0.0422000 2.6011000
vn 0.0000000 -2.6183193 -3.0346777
v -1.2918000 0.0422000 2.5897999
vn 1.5170258 -2.6178312 -2.6280594
v -1.2496001 0.0422000 2.6011000
vn 2.6280599 -2.6178303 -1.5170246
v -1.2187001 0.0422000 2.6320000
vn 0.0000000 -6.2831860 0.0000000
v -1.2918000 0.0422000 2.6742001
vn 0.0000000 6.2831860 0.0000000
v -1.2918000 0.0422000 2.6742001
vn 2.8465385 2.7494981 1.1799684
v -1.0970000 0.0422000 2.7549000
vn 3.0809512 2.7479911 0.0003663
v -1.0809000 0.0422000 2.6742001
vn 2.1787429 2.7488251 2.1787417
v -1.1427000 0.0422000 2.8232999
vn 1.1799661 2.7494960 2.8465385
v -1.2111000 0.0422000 2.8690000
vn -0.0000005 2.7477565 3.0808787
v -1.2918000 0.0422000 2.8850999
vn -1.1799666 2.7494965 2.8465383
v -1.3724999 0.0422000 2.8690000
vn -2.1787415 2.7488265 2.1787436
v -1.4409000 0.0422000 2.8232999
vn -2.8465376 2.7494955 1.1799676
v -1.4866000 0.0422000 2.7549000
vn -3.0809519 2.7479939 0.0003663
v -1.5027000 0.0422000 2.6742001
vn -2.8466108 2.7492576 -1.1796014
v -1.4866000 0.0422000 2.5934000
vn -2.1787415 2.7488265 -2.1787434
v -1.4409000 0.0422000 2.5250001
vn -1.1781319 2.7483053 -2.8469033
v -1.3724999 0.0422000 2.4793000
vn -0.0000004 2.7501378 -3.0816088
v -1.2918000 0.0422000 2.4633000
vn 1.1781316 2.7483053 -2.8469033
v -1.2111000 0.0422000 2.4793000
vn 2.1787429 2.7488253 -2.1787419
v -1.1427000 0.0422000 2.5250001
vn 2.8466115 2.7492604 -1.1796019
v -1.0970000 0.0422000 2.5934000
vn 2.8465385 -2.7494981 1.1799682
v -1.0970000 0.0000000 2.7549000
vn 3.0809507 -2.7479911 0.0003664
v -1.0809000 0.0000000 2.6742001
vn 2.1787429 -2.7488251 2.1787419
v -1.1427000 0.0000000 2.8232999
vn 1.1799661 -2.7494960 2.8465385
v -1.2111000 -0.0000000 2.8690000
vn -0.0000005 -2.7477565 3.0808790
v -1.2918000 -0.0000000 2.8850999
vn -1.1799666 -2.7494965 2.8465385
v -1.3724999 -0.0000000 2.8690000
vn -2.1787415 -2.7488265 2.1787434
v -1.4409000 0.0000000 2.8232999
vn -2.8465376 -2.7494955 1.1799678
v -1.4866000 0.0000000 2.7549000
vn -3.0809517 -2.7479939 0.0003663
v -1.5027000 0.0000000 2.6742001
vn -2.8466105 -2.7492576 -1.1796014
v -1.4866000 0.0000000 2.5934000
vn -2.1787415 -2.7488265 -2.1787434
v -1.4409000 0.0000000 2.5250001
vn -1.1781321 -2.7483053 -2.8469033
v -1.3724999 0.0000000 2.4793000
vn -0.0000004 -2.7501378 -3.0816085
v -1.2918000 0.0000000 2.4633000
vn 1.1781316 -2.7483053 -2.8469036
v -1.2111000 0.0000000 2.4793000
vn 2.1787429 -2.7488253 -2.1787419
v -1.1427000 0.0000000 2.5250001
vn 2.8466117 -2.7492604 -1.1796020
v -1.0970000 0.0000000 2.5934000
vn 0.0000000 -6.2831860 0.0000000
v -1.2918000 0.0000000 2.6742001
# 76 vertices, 0 vertices normals


usemtl material_0
vt 0.0000000 0.0000000
vt 0.1250000 0.0000000
vt 0.2500000 0.0000000
f 1/1/1 2/2/2 3/3/3
vt 0.3750000 0.0000000
vt 0.5000000 0.0000000
f 3/3/3 4/4/4 5/5/5
vt 0.6250000 0.0000000
vt 0.7500000 0.0000000
f 5/5/5 6/6/6 7/7/7
f 3/3/3 5/5/5 7/7/7
f 1/1/1 3/3/3 7/7/7
vt -0.1250000 0.0000000
f 8/8/8 1/1/1 7/7/7
vt 0.6250000 1.0000000
f 7/7/7 6/6/6 9/9/9
vt 0.7500000 1.0000000
f 9/9/9 10/10/10 7/7/7
vt 0.5000000 1.0000000
f 6/6/6 5/5/5 11/11/11
f 11/11/11 9/9/9 6/6/6
vt 0.3750000 1.0000000
f 5/5/5 4/4/4 12/12/12
f 12/12/12 11/11/11 5/5/5
vt 0.2500000 1.0000000
f 4/4/4 3/3/3 13/13/13
f 13/13/13 12/12/12 4/4/4
vt 0.1250000 1.0000000
f 3/3/3 2/2/2 14/14/14
f 14/14/14 13/13/13 3/3/3
vt 0.0000000 1.0000000
f 2/2/2 1/1/1 15/15/15
f 15/15/15 14/14/14 2/2/2
vt -0.1250000 1.0000000
f 1/1/1 8/8/8 16/16/16
f 16/16/16 15/15/15 1/1/1
vt 0.8750000 0.0000000
f 8/17/8 7/7/7 10/10/10
vt 0.8750000 1.0000000
f 10/10/10 16/18/16 8/17/8
f 10/10/10 9/9/9 11/11/11
f 11/11/11 12/12/12 13/13/13
f 13/13/13 14/14/14 15/15/15
f 11/11/11 13/13/13 15/15/15
f 10/10/10 11/11/11 15/15/15
f 16/18/16 10/10/10 15/15/15
vt 0.8333000 0.0000000
f 17/5/17 18/19/18 19/7/19
vt 0.9167000 0.0000000
f 17/5/17 20/20/20 18/19/18
vt -0.0833000 0.0000000
f 17/5/17 21/1/21 20/21/20
vt 0.0833000 0.0000000
f 17/5/17 22/22/22 21/1/21
vt 0.1667000 0.0000000
f 17/5/17 23/23/23 22/22/22
f 17/5/17 24/3/24 23/23/23
vt 0.3333000 0.0000000
f 17/5/17 25/24/25 24/3/24
vt 0.4167000 0.0000000
f 17/5/17 26/25/26 25/24/25
f 17/5/17 27/5/27 26/25/26
vt 0.5833000 0.0000000
f 17/5/17 28/26/28 27/5/27
vt 0.6667000 0.0000000
f 17/5/17 29/27/29 28/26/28
f 17/5/17 19/7/19 29/27/29
vt 0.8333000 1.0000000
f 19/7/19 30/28/30 31/10/31
f 19/7/19 18/19/18 30/28/30
vt 0.9167000 1.0000000
f 18/19/18 32/29/32 30/28/30
f 18/19/18 20/20/20 32/29/32
vt -0.0833000 1.0000000
f 20/21/20 33/15/33 32/30/32
f 20/21/20 21/1/21 33/15/33
vt 0.0833000 1.0000000
f 21/1/21 34/31/34 33/15/33
f 21/1/21 22/22/22 34/31/34
vt 0.1667000 1.0000000
f 22/22/22 35/32/35 34/31/34
f 22/22/22 23/23/23 35/32/35
f 23/23/23 36/13/36 35/32/35
f 23/23/23 24/3/24 36/13/36
vt 0.3333000 1.0000000
f 24/3/24 37/33/37 36/13/36
f 24/3/24 25/24/25 37/33/37
vt 0.4167000 1.0000000
f 25/24/25 38/34/38 37/33/37
f 25/24/25 26/25/26 38/34/38
f 26/25/26 39/11/39 38/34/38
f 26/25/26 27/5/27 39/11/39
vt 0.5833000 1.0000000
f 27/5/27 40/35/40 39/11/39
f 27/5/27 28/26/28 40/35/40
vt 0.6667000 1.0000000
f 28/26/28 41/36/41 40/35/40
f 28/26/28 29/27/29 41/36/41
f 29/27/29 31/10/31 41/36/41
f 29/27/29 19/7/19 31/10/31
f 42/11/42 31/10/31 30/28/30
f 42/11/42 30/28/30 32/29/32
f 42/11/42 32/30/32 33/15/33
f 42/11/42 33/15/33 34/31/34
f 42/11/42 34/31/34 35/32/35
f 42/11/42 35/32/35 36/13/36
f 42/11/42 36/13/36 37/33/37
f 42/11/42 37/33/37 38/34/38
f 42/11/42 38/34/38 39/11/39
f 42/11/42 39/11/39 40/35/40
f 42/11/42 40/35/40 41/36/41
f 42/11/42 41/36/41 31/10/31
vt 0.8125000 0.0000000
f 43/5/43 44/37/44 45/7/45
f 43/5/43 46/17/46 44/37/44
vt 0.9375000 0.0000000
f 43/5/43 47/38/47 46/17/46
vt -0.0625000 0.0000000
f 43/5/43 48/1/48 47/39/47
vt 0.0625000 0.0000000
f 43/5/43 49/40/49 48/1/48
f 43/5/43 50/2/50 49/40/49
vt 0.1875000 0.0000000
f 43/5/43 51/41/51 50/2/50
f 43/5/43 52/3/52 51/41/51
vt 0.3125000 0.0000000
f 43/5/43 53/42/53 52/3/52
f 43/5/43 54/4/54 53/42/53
vt 0.4375000 0.0000000
f 43/5/43 55/43/55 54/4/54
f 43/5/43 56/5/56 55/43/55
vt 0.5625000 0.0000000
f 43/5/43 57/44/57 56/5/56
f 43/5/43 58/6/58 57/44/57
vt 0.6875000 0.0000000
f 43/5/43 59/45/59 58/6/58
f 43/5/43 45/7/45 59/45/59
vt 0.8125000 1.0000000
f 45/7/45 60/46/60 61/10/61
f 45/7/45 44/37/44 60/46/60
f 44/37/44 62/18/62 60/46/60
f 44/37/44 46/17/46 62/18/62
vt 0.9375000 1.0000000
f 46/17/46 63/47/63 62/18/62
f 46/17/46 47/38/47 63/47/63
vt -0.0625000 1.0000000
f 47/39/47 64/15/64 63/48/63
f 47/39/47 48/1/48 64/15/64
vt 0.0625000 1.0000000
f 48/1/48 65/49/65 64/15/64
f 48/1/48 49/40/49 65/49/65
f 49/40/49 66/14/66 65/49/65
f 49/40/49 50/2/50 66/14/66
vt 0.1875000 1.0000000
f 50/2/50 67/50/67 66/14/66
f 50/2/50 51/41/51 67/50/67
f 51/41/51 68/13/68 67/50/67
f 51/41/51 52/3/52 68/13/68
vt 0.3125000 1.0000000
f 52/3/52 69/51/69 68/13/68
f 52/3/52 53/42/53 69/51/69
f 53/42/53 70/12/70 69/51/69
f 53/42/53 54/4/54 70/12/70
vt 0.4375000 1.0000000
f 54/4/54 71/52/71 70/12/70
f 54/4/54 55/43/55 71/52/71
f 55/43/55 72/11/72 71/52/71
f 55/43/55 56/5/56 72/11/72
vt 0.5625000 1.0000000
f 56/5/56 73/53/73 72/11/72
f 56/5/56 57/44/57 73/53/73
f 57/44/57 74/9/74 73/53/73
f 57/44/57 58/6/58 74/9/74
vt 0.6875000 1.0000000
f 58/6/58 75/54/75 74/9/74
f 58/6/58 59/45/59 75/54/75
f 59/45/59 61/10/61 75/54/75
f 59/45/59 45/7/45 61/10/61
f 76/11/76 61/10/61 60/46/60
f 76/11/76 60/46/60 62/18/62
f 76/11/76 62/18/62 63/47/63
f 76/11/76 63/48/63 64/15/64
f 76/11/76 64/15/64 65/49/65
f 76/11/76 65/49/65 66/14/66
f 76/11/76 66/14/66 67/50/67
f 76/11/76 67/50/67 68/13/68
f 76/11/76 68/13/68 69/51/69
f 76/11/76 69/51/69 70/12/70
f 76/11/76 70/12/70 71/52/71
f 76/11/76 71/52/71 72/11/72
f 76/11/76 72/11/72 73/53/73
f 76/11/76 73/53/73 74/9/74
f 76/11/76 74/9/74 75/54/75
f 76/11/76 75/54/75 61/10/61
# 140 faces, 54 coords texture

# End of File
