# Blender 4.0.2
# www.blender.org
mtllib trashnew.mtl
o Cube
v 1.408714 -1.658539 4.605218
v 1.269602 -1.681703 4.754816
v 1.257872 -1.810247 4.606359
v 0.850000 -0.850000 -1.000000
v 1.010894 -0.870071 -0.850396
v 0.860422 -1.021456 -0.851542
v -1.404968 -1.810247 4.606359
v -1.420403 -1.681703 4.754816
v -1.555608 -1.658587 4.605547
v -0.863995 -1.021456 -0.851542
v -1.014795 -0.870029 -0.850731
v -0.850000 -0.850000 -1.000000
v 1.418985 1.297988 4.605231
v 1.269110 1.449056 4.605297
v 1.280184 1.311018 4.754816
v 0.860774 1.011963 -0.850478
v 1.011195 0.861491 -0.850418
v 0.850000 0.850000 -1.000000
v -1.404851 1.459227 4.605313
v -1.555608 1.309332 4.605547
v -1.420403 1.321493 4.754816
v -0.850000 0.850000 -1.000000
v -1.014795 0.861746 -0.850731
v -0.864088 1.012264 -0.850502
vn -0.0000 -0.0000 -1.0000
vn 0.0002 0.9968 -0.0799
vn -0.9951 -0.0000 -0.0986
vn -0.0000 -0.0000 1.0000
vn -0.0000 -0.9897 -0.1430
vn 0.6225 -0.6153 0.4836
vn 0.5401 -0.5319 -0.6522
vn -0.6268 -0.6201 0.4718
vn -0.5339 -0.5282 -0.6603
vn 0.6095 0.6045 0.5129
vn 0.5479 0.5475 -0.6325
vn -0.6094 0.6137 0.5020
vn -0.5419 0.5435 -0.6410
vn -0.0000 0.6783 -0.7348
vn 0.6809 -0.0001 -0.7323
vn 0.7003 -0.6975 -0.1518
vn -0.7008 0.7019 -0.1270
vn -0.6987 -0.6950 -0.1697
vn 0.7057 0.7001 -0.1089
vn -0.7412 -0.0000 0.6713
vn -0.0000 -0.7560 0.6546
vn -0.6713 -0.0000 -0.7412
vn 0.0029 0.7353 0.6777
vn 0.7329 -0.0025 0.6803
vn -0.0000 -0.6546 -0.7560
vn 0.9972 -0.0002 -0.0745
vn 0.0038 0.9967 -0.0813
vn 0.0001 0.6776 -0.7354
vn 0.6802 -0.0000 -0.7330
vn 0.7016 -0.6962 -0.1518
vn -0.6995 0.7033 -0.1270
vn 0.7031 0.7028 -0.1088
vn 0.0028 0.7349 0.6782
vn 0.7325 -0.0026 0.6808
vn 0.9973 -0.0035 -0.0732
vt 0.356250 0.518750
vt 0.143750 0.731250
vt 0.143750 0.518750
vt 0.381495 0.017946
vt 0.618505 0.236954
vt 0.381495 0.232066
vt 0.381485 0.767744
vt 0.618515 0.988009
vt 0.381485 0.982295
vt 0.863617 0.512504
vt 0.636359 0.737465
vt 0.636383 0.512535
vt 0.618551 0.513088
vt 0.381449 0.732041
vt 0.381449 0.517947
vt 0.618501 0.487940
vt 0.624521 0.488690
vt 0.618087 0.500000
vt 0.358759 0.500000
vt 0.375000 0.517447
vt 0.617921 0.750000
vt 0.624360 0.761276
vt 0.618515 0.762021
vt 0.375000 0.732999
vt 0.358754 0.750000
vt 0.356250 0.731250
vt 0.617983 0.250000
vt 0.624476 0.237499
vt 0.125000 0.517403
vt 0.142314 0.500000
vt 0.618505 0.013056
vt 0.617988 0.000000
vt 0.624476 0.012489
vt 0.142282 0.750000
vt 0.125000 0.733011
vt 0.380957 0.000000
vt 0.618551 0.736902
vt 0.618502 0.262029
vt 0.625000 0.988605
vt 0.625000 0.761351
vt 0.625000 0.237509
vt 0.625000 0.012544
vt 0.625000 0.261387
vt 0.381499 0.482248
vt 0.381498 0.267712
vt 0.863641 0.737496
vt 0.625000 0.488649
s 0
usemtl Material
f 4/1/1 22/2/1 18/3/1
f 24/4/2 14/5/2 16/6/2
f 11/7/3 20/8/3 23/9/3
f 15/10/4 8/11/4 2/12/4
f 3/13/5 10/14/5 6/15/5
f 1/16/6 2/17/6 3/18/6
f 4/1/7 5/19/7 6/20/7
f 7/21/8 8/22/8 9/23/8
f 10/24/9 11/25/9 12/26/9
f 13/27/10 14/5/10 15/28/10
f 16/29/11 17/30/11 18/3/11
f 19/31/12 20/32/12 21/33/12
f 22/2/13 23/34/13 24/35/13
f 22/2/14 16/29/14 18/3/14
f 4/1/15 17/30/15 5/19/15
f 6/15/16 1/16/16 3/13/16
f 23/36/17 19/31/17 24/4/17
f 9/23/18 10/14/18 7/37/18
f 13/38/19 16/6/19 14/5/19
f 21/39/20 9/23/20 8/40/20
f 2/12/21 7/37/21 3/13/21
f 12/26/22 23/34/22 22/2/22
f 15/41/23 19/31/23 21/42/23
f 15/43/24 1/16/24 13/38/24
f 12/26/25 6/15/25 10/14/25
f 13/38/26 5/44/26 17/45/26
f 4/1/1 12/26/1 22/2/1
f 24/4/27 19/31/27 14/5/27
f 11/7/3 9/23/3 20/8/3
f 15/10/4 21/46/4 8/11/4
f 3/13/5 7/37/5 10/14/5
f 22/2/28 24/35/28 16/29/28
f 4/1/29 18/3/29 17/30/29
f 6/15/30 5/44/30 1/16/30
f 23/36/31 20/32/31 19/31/31
f 9/23/18 11/7/18 10/14/18
f 13/38/32 17/45/32 16/6/32
f 21/39/20 20/8/20 9/23/20
f 2/12/21 8/11/21 7/37/21
f 12/26/22 11/25/22 23/34/22
f 15/41/33 14/5/33 19/31/33
f 15/43/34 2/47/34 1/16/34
f 12/26/25 4/1/25 6/15/25
f 13/38/35 1/16/35 5/44/35
